<?xml version="1.0" encoding="iso-8859-1"?>
<!-- Generator: Adobe Illustrator 19.0.0, SVG Export Plug-In . SVG Version: 6.00 Build 0)  -->
<svg version="1.1" id="Capa_1" xmlns="http://www.w3.org/2000/svg" xmlns:xlink="http://www.w3.org/1999/xlink" x="0px" y="0px"
	 viewBox="0 0 512.001 512.001" style="enable-background:new 0 0 512.001 512.001;" xml:space="preserve">
<path style="fill:#FFDEA9;" d="M58.986,62.089c157.231,112.206,293.059,249.946,403.052,408.734
	c-7.914,5.433-11.871,8.149-19.786,13.583C333.861,327.959,200.041,192.255,45.127,81.682
	C50.671,73.845,53.442,69.926,58.986,62.089z"/>
<path style="fill:#A66856;" d="M103.036,94.365c6.198-8.351,9.296-12.527,15.492-20.882c-11.008-8.35-22.121-16.562-33.335-24.633
	c-6.076,8.441-9.114,12.661-15.189,21.101C81.117,77.95,92.128,86.089,103.036,94.365z"/>
<path style="fill:#F3B573;" d="M215.85,458.274c18.206-20.217,92.408-182.791,108.292-206.272
	c38.985-57.629,125.976-158.808,125.976-158.808l-15.655-15.655l-15.656-15.656c0,0-101.18,86.991-158.808,125.976
	C236.517,203.742,73.943,277.944,53.726,296.15c-64.445,58.034-56.139,122.101-8.058,170.182S157.816,522.719,215.85,458.274z"/>
<path style="fill:#F5A257;" d="M434.463,77.538l-6.178-6.178c0,0-86.991,101.18-125.976,158.808
	c-15.884,23.481-90.086,186.055-108.292,206.272c-53.551,59.467-112.238,56.986-158.762,18.472c3.225,3.895,6.7,7.705,10.414,11.419
	c48.081,48.081,112.147,56.387,170.182-8.058c18.206-20.217,92.408-182.791,108.292-206.272
	c38.985-57.629,125.976-158.809,125.976-158.809L434.463,77.538z"/>
<g>
	<path style="fill:#A66856;" d="M45.66,466.323L45.66,466.323c-4.465-4.464-5.965-10.437-3.469-13.812l50.929-68.853l35.223,35.218
		l-68.869,50.915C56.098,472.287,50.124,470.787,45.66,466.323z"/>
	<path style="fill:#A66856;" d="M325.115,267.526l-80.641-80.641c0,0,151.849-108.367,174.507-127.665l15.96,17.838l17.838,15.96
		C433.482,115.676,325.115,267.526,325.115,267.526z"/>
</g>
<path style="fill:#8F5040;" d="M434.942,77.058l-3.656-4.085c-20.948,25.107-127.005,173.72-127.005,173.72l20.833,20.833
	c0,0,108.367-151.849,127.666-174.507L434.942,77.058z"/>
<path style="fill:#F3B573;" d="M490.348,89.458c-20.741,20.741-48.67,18.313-67.394-0.411s-21.153-46.653-0.411-67.394
	C438.824,5.37,479.067,6.91,495.619,8.325c4.293,0.367,7.689,3.763,8.056,8.056C505.09,32.933,506.63,73.176,490.348,89.458z"/>
<path style="fill:#F5A257;" d="M503.675,16.381c-0.367-4.293-3.763-7.689-8.056-8.056c-3.086-0.264-6.998-0.532-11.423-0.688
	c0.681,19.306-0.769,48.408-14.015,61.654c-16.852,16.852-38.448,18.409-55.997,8.358c2.32,4.05,5.258,7.886,8.77,11.397
	c18.724,18.724,46.653,21.153,67.394,0.411C506.63,73.176,505.09,32.933,503.675,16.381z"/>
<path d="M181.41,274.42c0,4.17-3.38,7.55-7.55,7.55c-1.47,0-2.84-0.42-4-1.16c-1.76-0.39-10.6-1.13-24.96,18.17
	c-14.55,19.55-28.67,24.06-38.61,24.06c-0.77,0-1.52-0.02-2.24-0.07c-10.61-0.74-18.33-6.49-21.27-11.86
	c-2-3.63-0.67-8.19,2.97-10.18c3.63-1.99,8.19-0.67,10.18,2.96c0.55,0.95,3.93,3.82,9.36,4.13c8.76,0.47,18.57-5.89,27.57-17.99
	c24.09-32.38,42.07-23.69,44.5-22.29c0.04,0.02,0.07,0.04,0.1,0.06v0.001C179.813,269.078,181.41,271.552,181.41,274.42z"/>
<path d="M213.055,367.096c-21.085,15.675-24.687,30.859-23.997,40.835c0.734,10.602,6.49,18.32,11.868,21.266
	c1.143,0.626,2.379,0.924,3.597,0.924c2.651,0,5.221-1.408,6.585-3.897c1.99-3.634,0.66-8.19-2.973-10.179
	c-0.952-0.552-3.817-3.927-4.126-9.352c-0.501-8.772,5.89-18.56,17.994-27.559c32.885-24.448,23.418-42.596,22.23-44.585
	c-2.123-3.556-6.727-4.714-10.285-2.594c-3.555,2.124-4.717,6.728-2.594,10.285c0.005,0.007,0.205,1.683-0.319,3.772
	C230.146,349.554,226.627,357.005,213.055,367.096z"/>
<path d="M135.348,329.677c-2.929,2.93-2.929,7.677,0,10.607l36.368,36.368c1.465,1.464,3.385,2.196,5.303,2.196
	c1.919,0,3.839-0.732,5.303-2.196c2.929-2.93,2.929-7.677,0-10.607l-36.368-36.368C143.026,326.749,138.278,326.749,135.348,329.677
	z"/>
<path d="M395.919,169.154c1.333,0.97,2.877,1.437,4.408,1.437c2.316,0,4.601-1.07,6.069-3.087
	c18.61-25.568,32.679-44.602,41.936-56.734c2.872,0.492,5.764,0.753,8.656,0.753c13.758,0,27.475-5.578,38.641-16.742
	c17.835-17.836,17.363-57.162,15.495-79.015c-0.678-7.95-6.94-14.212-14.889-14.89c-21.854-1.866-61.18-2.339-79.016,15.495
	c-13.513,13.514-18.828,30.758-15.992,47.3c-35.955,27.426-123.426,90.16-151.959,110.577
	c-26.024-24.181-53.109-47.826-80.612-70.333c-3.203-2.624-7.93-2.153-10.553,1.054c-2.624,3.205-2.151,7.93,1.054,10.553
	c26.746,21.889,53.094,44.864,78.442,68.359c-0.333,0.754-0.544,1.564-0.614,2.404c-0.153,1.845,0.391,3.664,1.489,5.125
	c-1.809,0.95-3.718,1.943-5.717,2.974c-38.01-35.415-78.007-69.323-119.443-101.276c2.287-3.089,4.266-5.757,6.518-8.791
	c4.861,3.742,9.703,7.497,14.502,11.276c1.375,1.083,3.011,1.607,4.635,1.607c2.22,0,4.417-0.98,5.897-2.86
	c2.562-3.254,2.002-7.969-1.253-10.532c-6.861-5.403-13.79-10.772-20.773-16.098c-0.005-0.004-0.01-0.008-0.015-0.012
	c-0.003-0.002-0.007-0.005-0.011-0.007c-10.961-8.36-22.062-16.609-33.246-24.723c-0.027-0.02-0.05-0.042-0.078-0.062
	c-0.026-0.019-0.054-0.033-0.08-0.052c-10.003-7.255-20.072-14.403-30.18-21.406c-3.403-2.357-8.077-1.511-10.436,1.893
	c-2.358,3.405-1.511,8.077,1.893,10.436c8.014,5.552,16.001,11.201,23.953,16.916l-6.377,8.855c-1.64-1.179-3.274-2.368-4.917-3.541
	c-1.624-1.158-3.639-1.624-5.607-1.291c-1.966,0.333-3.719,1.435-4.871,3.062l-2.773,3.916c-3.871,5.469-6.551,9.254-11.09,15.678
	c-2.383,3.371-1.593,8.034,1.767,10.432c53.991,38.54,106.005,80.656,154.754,125.281c-6.853,3.392-13.963,6.898-21.172,10.452
	c-30.396,14.988-61.827,30.486-86.225,43.384c-3.662,1.936-5.061,6.474-3.126,10.135c1.346,2.545,3.946,3.997,6.637,3.997
	c1.182,0,2.381-0.28,3.498-0.871c24.212-12.8,55.545-28.25,85.849-43.191c19.631-9.68,38.547-19.007,53.564-26.669
	c0.239-0.105,0.472-0.226,0.7-0.358c5.294-2.705,10.09-5.197,14.243-7.417l59.961,59.961c-8.563,16.02-21.172,41.59-34.445,68.509
	c-24.447,49.582-54.873,111.288-64.742,122.238c-25.452,28.268-52.688,42.977-80.95,43.717
	c-21.548,0.554-43.144-7.237-63.292-22.694l66.771-49.364c1.755-1.298,2.858-3.297,3.02-5.473c0.162-2.178-0.633-4.317-2.177-5.861
	l-35.221-35.217c-1.542-1.542-3.678-2.332-5.859-2.176c-2.177,0.162-4.175,1.265-5.472,3.019L37.71,445.961
	c-15.451-20.141-23.244-41.726-22.679-63.277c0.74-28.262,15.449-55.499,43.721-80.954c1.07-0.966,3.434-2.79,8.615-5.999
	c3.521-2.181,4.607-6.803,2.427-10.325c-2.18-3.521-6.804-4.606-10.325-2.427c-4.988,3.09-8.508,5.579-10.757,7.607
	C17.263,318.9,0.887,349.754,0.034,382.291c-0.818,31.221,13.105,62.09,40.261,89.276c0.021,0.021,0.038,0.042,0.059,0.063
	c0.014,0.014,0.028,0.025,0.042,0.038C66.836,498.095,96.76,512,127.107,512c0.865,0,1.735-0.012,2.601-0.034
	c32.537-0.853,63.391-17.229,91.701-48.672c10.452-11.596,34.383-59.39,67.051-125.644c3.542-7.183,7.035-14.268,10.416-21.098
	c49.319,54.013,95.443,111.87,137.188,172.13c1.456,2.102,3.794,3.23,6.172,3.23c1.463,0,2.942-0.428,4.239-1.319l19.789-13.588
	c1.643-1.129,2.77-2.866,3.131-4.828c0.088-0.478,0.126-0.959,0.121-1.438l0.987-2.059c0.024-0.053,0.049-0.104,0.073-0.157
	c8.778-19.491,0.956-43.459-10.703-58.597c-37.837-51.184-78.905-100.67-122.121-147.196c9.702-13.561,28.946-40.413,49.28-68.533
	c2.428-3.356,1.674-8.045-1.683-10.471c-3.354-2.427-8.045-1.675-10.471,1.683c-21.383,29.568-41.575,57.758-50.74,70.571
	l-68.099-68.099c-0.006-0.005-0.012-0.012-0.018-0.018l-0.004-0.004c25.355-18.137,110.938-79.478,150.196-109.144
	c2.79,5.541,6.588,10.826,11.415,15.653c4.828,4.827,10.113,8.624,15.655,11.415c-9.255,12.245-22.329,29.967-39.015,52.893
	C391.832,162.026,392.57,166.716,395.919,169.154z M107.904,75.218c-2.222,2.994-4.168,5.618-6.393,8.622
	c-6.987-5.251-14.031-10.457-21.055-15.561l6.321-8.778C93.864,64.689,100.909,69.93,107.904,75.218z M48.485,456.614l45.482-61.49
	l22.908,22.905l-61.503,45.468c-0.708-0.042-2.507-0.593-4.367-2.433c-0.012-0.012-0.024-0.023-0.035-0.035
	c-0.024-0.024-0.048-0.049-0.072-0.073C49.077,459.105,48.527,457.319,48.485,456.614z M55.55,79.946
	c1.797-2.541,3.403-4.809,5.197-7.344c55.134,39.733,108.132,83.081,157.773,129.024c-2.778,1.398-5.656,2.839-8.61,4.313
	C161.308,161.13,109.438,118.782,55.55,79.946z M444.126,474.011c-42.107-60.198-88.53-117.952-138.1-171.854
	c1.475-2.957,2.917-5.836,4.315-8.615c50.767,54.992,98.219,113.908,141.21,175.371L444.126,474.011z M447.952,419.029
	c6.934,8.98,12.473,22.531,11.22,34.649c-43.206-61.136-90.774-119.711-141.585-174.381c1.041-2.018,2.043-3.945,3.002-5.77
	c1.297,0.976,2.874,1.515,4.504,1.515c0.207,0,0.414-0.009,0.621-0.025c0.841-0.07,1.652-0.282,2.407-0.616
	c42.355,45.709,82.615,94.284,119.736,144.503C447.889,418.945,447.92,418.987,447.952,419.029z M427.825,26.978
	c7.766-7.767,25.277-11.993,48.411-11.993c5.897,0,12.163,0.274,18.722,0.835c0.651,0.056,1.165,0.569,1.221,1.222
	c2.761,32.29-1.411,57.385-11.158,67.132c-16.595,16.596-39.947,16.427-56.785-0.412C411.398,66.925,411.229,43.574,427.825,26.978z
	"/>
<circle cx="440.75" cy="45.24" r="7.5"/>
<circle cx="466.76" cy="71.24" r="7.5"/>
<circle cx="474.95" cy="37.05" r="7.5"/>
<g>
</g>
<g>
</g>
<g>
</g>
<g>
</g>
<g>
</g>
<g>
</g>
<g>
</g>
<g>
</g>
<g>
</g>
<g>
</g>
<g>
</g>
<g>
</g>
<g>
</g>
<g>
</g>
<g>
</g>
</svg>
