<?xml version="1.0" encoding="iso-8859-1"?>
<!-- Generator: Adobe Illustrator 19.0.0, SVG Export Plug-In . SVG Version: 6.00 Build 0)  -->
<svg version="1.1" id="Capa_1" xmlns="http://www.w3.org/2000/svg" xmlns:xlink="http://www.w3.org/1999/xlink" x="0px" y="0px"
	 viewBox="0 0 512 512" style="enable-background:new 0 0 512 512;" xml:space="preserve">
<polygon style="fill:#A66856;" points="402.678,504.5 109.322,504.5 34,7.5 478,7.5 "/>
<polygon style="fill:#8F5040;" points="34,7.5 34.002,7.516 444.763,7.743 372.594,504.5 402.678,504.5 478,7.5 "/>
<polygon style="fill:#735458;" points="135.117,474.5 70.54,7.743 444.763,7.743 376.883,474.5 "/>
<g>
	<circle style="fill:#F3B573;" cx="125.55" cy="52.577" r="15"/>
	<circle style="fill:#F3B573;" cx="134.53" cy="116.08" r="15"/>
	<circle style="fill:#F3B573;" cx="143.51" cy="179.58" r="15"/>
	<circle style="fill:#F3B573;" cx="152.49" cy="243.09" r="15"/>
	<circle style="fill:#F3B573;" cx="161.47" cy="306.59" r="15"/>
	<circle style="fill:#F3B573;" cx="170.45" cy="370.09" r="15"/>
	<circle style="fill:#F3B573;" cx="179.43" cy="433.6" r="15"/>
	<circle style="fill:#F3B573;" cx="386.45" cy="52.577" r="15"/>
	<circle style="fill:#F3B573;" cx="377.47" cy="116.08" r="15"/>
	<circle style="fill:#F3B573;" cx="368.49" cy="179.58" r="15"/>
	<circle style="fill:#F3B573;" cx="359.51" cy="243.09" r="15"/>
	<circle style="fill:#F3B573;" cx="350.53" cy="306.59" r="15"/>
	<circle style="fill:#F3B573;" cx="341.55" cy="370.09" r="15"/>
	<circle style="fill:#F3B573;" cx="332.57" cy="433.6" r="15"/>
</g>
<path d="M483,45.08h-3.11l5.525-36.457c0.328-2.16-0.304-4.356-1.729-6.013C482.262,0.953,480.186,0,478,0H34
	c-2.186,0-4.262,0.953-5.687,2.61c-1.425,1.656-2.057,3.853-1.729,6.013L32.11,45.08H29c-4.143,0-7.5,3.357-7.5,7.5
	s3.357,7.5,7.5,7.5h5.383l7.35,48.5H40.83c-4.143,0-7.5,3.357-7.5,7.5s3.357,7.5,7.5,7.5h3.177l7.35,48.5H50.41
	c-4.143,0-7.5,3.357-7.5,7.5s3.357,7.5,7.5,7.5h3.22l7.352,48.51H59.88c-4.143,0-7.5,3.357-7.5,7.5s3.357,7.5,7.5,7.5h3.375
	l7.335,48.4h-1.05c-4.143,0-7.5,3.357-7.5,7.5s3.357,7.5,7.5,7.5h3.323l7.365,48.6H77.73c-4.143,0-7.5,3.357-7.5,7.5
	s3.357,7.5,7.5,7.5h4.771l7.352,48.51H88.3c-4.143,0-7.5,3.357-7.5,7.5s3.357,7.5,7.5,7.5h3.827l9.779,64.523
	c0.555,3.667,3.707,6.377,7.415,6.377h242.805c4.143,0,7.5-3.357,7.5-7.5s-3.357-7.5-7.5-7.5H115.77l-8.472-55.9h15.63l4.764,34.429
	c0.513,3.709,3.684,6.472,7.429,6.472h25.047c4.143,0,7.5-3.357,7.5-7.5s-3.357-7.5-7.5-7.5h-18.514l-3.583-25.9h20.147
	c3.098,8.727,11.433,14.995,21.208,14.995s18.111-6.269,21.208-14.995h110.734c3.098,8.727,11.433,14.995,21.208,14.995
	s18.111-6.269,21.208-14.995h20.375l-3.767,25.9H192c-4.143,0-7.5,3.357-7.5,7.5s3.357,7.5,7.5,7.5h184.88
	c3.725,0,6.886-2.734,7.422-6.42l5.014-34.48h15.386L396.23,497H384c-4.143,0-7.5,3.357-7.5,7.5s3.357,7.5,7.5,7.5h18.68
	c3.708,0,6.86-2.71,7.415-6.377l9.779-64.523h3.827c4.143,0,7.5-3.357,7.5-7.5s-3.357-7.5-7.5-7.5h-1.554l7.352-48.51h4.771
	c4.143,0,7.5-3.357,7.5-7.5s-3.357-7.5-7.5-7.5h-2.498l7.365-48.6h3.323c4.143,0,7.5-3.357,7.5-7.5s-3.357-7.5-7.5-7.5h-1.05
	l7.335-48.4h3.375c4.143,0,7.5-3.357,7.5-7.5s-3.357-7.5-7.5-7.5h-1.102l7.352-48.51h3.22c4.143,0,7.5-3.357,7.5-7.5
	s-3.357-7.5-7.5-7.5h-0.947l7.35-48.5h3.177c4.143,0,7.5-3.357,7.5-7.5s-3.357-7.5-7.5-7.5h-0.903l7.35-48.5H483
	c4.143,0,7.5-3.357,7.5-7.5S487.143,45.08,483,45.08z M464.72,45.08h-17.812L451.283,15h17.996L464.72,45.08z M407.663,45.08
	c-3.095-8.73-11.433-15.003-21.211-15.003s-18.115,6.272-21.211,15.003H191.875c-4.143,0-7.5,3.357-7.5,7.5s3.357,7.5,7.5,7.5
	h173.368c3.097,8.728,11.433,14.997,21.209,14.997s18.112-6.27,21.209-14.997h21.909l-7.053,48.5h-23.834
	c-3.096-8.729-11.433-15-21.21-15s-18.114,6.271-21.21,15H155.74c-3.096-8.729-11.433-15-21.21-15s-18.114,6.271-21.21,15H92.063
	l-6.71-48.5h18.987c3.097,8.728,11.433,14.997,21.209,14.997s18.112-6.27,21.209-14.997h13.118c4.143,0,7.5-3.357,7.5-7.5
	s-3.357-7.5-7.5-7.5H146.76c-3.095-8.73-11.433-15.003-21.211-15.003s-18.115,6.272-21.211,15.003h-21.06l-4.129-29.84h356.942
	l-4.34,29.84H407.663z M393.951,52.598c-0.011,4.126-3.37,7.479-7.499,7.479c-4.136,0-7.5-3.364-7.5-7.5s3.364-7.5,7.5-7.5
	c4.13,0,7.489,3.355,7.499,7.482c0,0.007-0.001,0.014-0.001,0.021C393.95,52.586,393.951,52.592,393.951,52.598z M362.764,362.59
	c-3.097-8.728-11.433-14.998-21.209-14.998s-18.112,6.27-21.209,14.998H191.655c-3.097-8.728-11.433-14.998-21.209-14.998
	s-18.112,6.27-21.209,14.998h-22.029l-6.724-48.6h19.739c3.068,8.78,11.43,15.099,21.243,15.099s18.175-6.318,21.243-15.099h146.582
	c3.068,8.78,11.43,15.099,21.243,15.099s18.175-6.318,21.243-15.099h20.866l-7.068,48.6H362.764z M349.052,370.139
	c-0.026,4.114-3.378,7.453-7.498,7.453c-4.136,0-7.5-3.364-7.5-7.5s3.364-7.5,7.5-7.5c4.119,0,7.471,3.338,7.498,7.451
	c0,0.016-0.002,0.031-0.002,0.047S349.052,370.123,349.052,370.139z M162.948,370.042c0.027-4.113,3.378-7.451,7.498-7.451
	c4.136,0,7.5,3.364,7.5,7.5s-3.364,7.5-7.5,7.5c-4.12,0-7.472-3.339-7.498-7.453c0-0.017,0.002-0.033,0.002-0.049
	C162.95,370.074,162.948,370.059,162.948,370.042z M161.466,299.089c4.136,0,7.5,3.364,7.5,7.5s-3.364,7.5-7.5,7.5
	s-7.5-3.364-7.5-7.5S157.33,299.089,161.466,299.089z M358.034,306.589c0,4.136-3.364,7.5-7.5,7.5s-7.5-3.364-7.5-7.5
	s3.364-7.5,7.5-7.5S358.034,302.453,358.034,306.589z M371.711,298.99c-3.124-8.678-11.436-14.901-21.176-14.901
	s-18.053,6.223-21.176,14.901H182.642c-3.124-8.678-11.436-14.901-21.176-14.901s-18.053,6.223-21.176,14.901h-21.882l-6.697-48.4
	h19.567c3.097,8.727,11.433,14.996,21.208,14.996s18.111-6.269,21.208-14.996h164.61c3.097,8.727,11.433,14.996,21.208,14.996
	s18.111-6.269,21.208-14.996h21.142l-7.039,48.4H371.711z M144.988,243.049c0.02-4.119,3.375-7.463,7.498-7.463
	c4.136,0,7.5,3.364,7.5,7.5s-3.364,7.5-7.5,7.5c-4.122,0-7.476-3.342-7.498-7.459c0-0.012,0.002-0.024,0.002-0.037
	C144.99,243.076,144.988,243.063,144.988,243.049z M367.012,243.126c-0.022,4.117-3.376,7.459-7.498,7.459
	c-4.136,0-7.5-3.364-7.5-7.5s3.364-7.5,7.5-7.5c4.123,0,7.478,3.345,7.498,7.463c0,0.014-0.002,0.027-0.002,0.041
	C367.01,243.102,367.011,243.114,367.012,243.126z M380.725,235.59c-3.095-8.731-11.433-15.004-21.211-15.004
	s-18.116,6.272-21.211,15.004H173.698c-3.095-8.731-11.433-15.004-21.211-15.004s-18.116,6.272-21.211,15.004h-21.639l-6.712-48.51
	h19.372c3.095,8.73,11.433,15.003,21.211,15.003s18.115-6.272,21.211-15.003h182.565c3.095,8.73,11.433,15.003,21.211,15.003
	s18.115-6.272,21.211-15.003H411.1l-7.055,48.51H380.725z M136.008,179.553c0.017-4.122,3.373-7.47,7.499-7.47
	c4.136,0,7.5,3.364,7.5,7.5s-3.364,7.5-7.5,7.5c-4.126,0-7.484-3.35-7.499-7.473c0-0.01,0.001-0.02,0.001-0.03
	C136.01,179.571,136.008,179.562,136.008,179.553z M375.992,179.61c-0.015,4.123-3.372,7.473-7.499,7.473
	c-4.136,0-7.5-3.364-7.5-7.5s3.364-7.5,7.5-7.5c4.125,0,7.482,3.348,7.499,7.47c0,0.009-0.001,0.018-0.001,0.027
	C375.99,179.59,375.992,179.6,375.992,179.61z M389.702,172.08c-3.097-8.728-11.433-14.997-21.209-14.997
	s-18.112,6.27-21.209,14.997H164.716c-3.097-8.728-11.433-14.997-21.209-14.997s-18.112,6.27-21.209,14.997h-21.449l-6.71-48.5
	h19.182c3.096,8.729,11.433,15,21.21,15s18.114-6.271,21.21-15h200.523c3.096,8.729,11.433,15,21.21,15s18.114-6.271,21.21-15
	h21.652l-7.053,48.5H389.702z M127.03,116.08c0-4.136,3.364-7.5,7.5-7.5s7.5,3.364,7.5,7.5s-3.364,7.5-7.5,7.5
	S127.03,120.216,127.03,116.08z M384.971,116.109c-0.016,4.123-3.373,7.471-7.499,7.471c-4.136,0-7.5-3.364-7.5-7.5
	s3.364-7.5,7.5-7.5c4.126,0,7.483,3.349,7.499,7.471c0,0.01-0.001,0.019-0.001,0.029S384.971,116.099,384.971,116.109z
	 M118.049,52.56c0.01-4.127,3.369-7.482,7.499-7.482c4.136,0,7.5,3.364,7.5,7.5s-3.364,7.5-7.5,7.5
	c-4.129,0-7.488-3.353-7.499-7.479c0-0.006,0.001-0.012,0.001-0.018C118.05,52.573,118.049,52.566,118.049,52.56z M42.722,15h21.251
	l4.162,30.08H47.28L42.722,15z M49.554,60.08H70.21l6.71,48.5H56.904L49.554,60.08z M59.177,123.58h19.819l6.71,48.5H66.527
	L59.177,123.58z M68.801,187.08h18.981l6.712,48.51H76.152L68.801,187.08z M78.426,250.59h18.143l6.697,48.4H85.761L78.426,250.59z
	 M88.034,313.99h17.307l6.724,48.6H95.399L88.034,313.99z M105.024,426.1l-7.352-48.51h16.468l6.712,48.51H105.024z
	 M179.425,441.095c-4.119,0-7.47-3.337-7.497-7.449c0-0.016,0.002-0.03,0.002-0.046c0-0.017-0.002-0.034-0.003-0.051
	c0.025-4.114,3.377-7.454,7.498-7.454c4.136,0,7.5,3.364,7.5,7.5S183.561,441.095,179.425,441.095z M332.575,441.095
	c-4.136,0-7.5-3.364-7.5-7.5s3.364-7.5,7.5-7.5c4.12,0,7.473,3.34,7.498,7.454c0,0.017-0.003,0.034-0.003,0.051
	c0,0.016,0.002,0.03,0.002,0.046C340.045,437.758,336.694,441.095,332.575,441.095z M353.787,426.1
	c-3.095-8.732-11.433-15.005-21.211-15.005s-18.117,6.273-21.211,15.005H200.636c-3.095-8.732-11.433-15.005-21.211-15.005
	s-18.117,6.273-21.211,15.005h-22.219l-6.712-48.51h19.952c3.096,8.73,11.433,15.002,21.21,15.002s18.115-6.271,21.21-15.002
	h128.688c3.096,8.73,11.433,15.002,21.21,15.002s18.115-6.271,21.21-15.002h20.629l-7.055,48.51H353.787z M406.976,426.1h-15.478
	l7.055-48.51h15.775L406.976,426.1z M416.601,362.59h-15.867l7.068-48.6h16.164L416.601,362.59z M426.239,298.99h-16.256l7.039-48.4
	h16.553L426.239,298.99z M435.848,235.59h-16.645l7.055-48.51H443.2L435.848,235.59z M445.473,172.08h-17.034l7.053-48.5h17.331
	L445.473,172.08z M455.096,108.58h-17.422l7.053-48.5h17.719L455.096,108.58z"/>
<g>
</g>
<g>
</g>
<g>
</g>
<g>
</g>
<g>
</g>
<g>
</g>
<g>
</g>
<g>
</g>
<g>
</g>
<g>
</g>
<g>
</g>
<g>
</g>
<g>
</g>
<g>
</g>
<g>
</g>
</svg>
