<?xml version="1.0" encoding="iso-8859-1"?>
<!-- Generator: Adobe Illustrator 19.0.0, SVG Export Plug-In . SVG Version: 6.00 Build 0)  -->
<svg version="1.1" id="Capa_1" xmlns="http://www.w3.org/2000/svg" xmlns:xlink="http://www.w3.org/1999/xlink" x="0px" y="0px"
	 viewBox="0 0 512.001 512.001" style="enable-background:new 0 0 512.001 512.001;" xml:space="preserve">
<path style="fill:#A66856;" d="M433,319.209C433,421.543,353.754,504.5,256,504.5S79,421.543,79,319.209S256,89.965,256,89.965
	S433,216.876,433,319.209z"/>
<path style="fill:#8F5040;" d="M256,89.965c0,0-6.037,4.33-15.875,12.027c43.45,33.999,161.125,133.776,161.125,217.217
	c0,96.73-70.81,176.134-161.125,184.541c5.231,0.487,10.523,0.75,15.875,0.75c97.754,0,177-82.958,177-185.291
	S256,89.965,256,89.965z"/>
<g>
	<path style="fill:#F3B573;" d="M328.582,54.808c-0.008,8.281-5.262,15.005-11.732,15.005l-60.349-6.97l-60.349,6.97
		c-6.471,0-11.725-6.724-11.732-15.005c0-8.291,5.246-14.995,11.717-14.995l60.364,6.921l60.364-6.921
		C323.335,39.813,328.582,46.517,328.582,54.808z"/>
	<path style="fill:#F3B573;" d="M328.582,104.341c-0.008,8.281-5.262,15.005-11.732,15.005l-60.349-6.97l-60.349,6.97
		c-6.471,0-11.725-6.724-11.732-15.005c0-8.291,5.246-14.995,11.717-14.995l60.364,6.921l60.364-6.921
		C323.335,89.345,328.582,96.049,328.582,104.341z"/>
</g>
<g>
	<rect x="216" y="7.5" style="fill:#5C4346;" width="80" height="350"/>
	<rect x="266" y="7.5" style="fill:#5C4346;" width="30" height="350"/>
</g>
<rect x="211" y="129.77" style="fill:#735458;" width="90" height="227.73"/>
<rect x="271" y="129.77" style="fill:#5C4346;" width="30" height="227.73"/>
<rect x="169" y="357.5" style="fill:#F3B573;" width="174" height="54"/>
<rect x="313" y="357.5" style="fill:#F5A257;" width="30" height="54"/>
<rect x="233.01" y="411.73" style="fill:#5C4346;" width="45.979" height="92.77"/>
<rect x="201" y="7.5" style="fill:#735458;" width="110" height="30"/>
<rect x="281" y="7.5" style="fill:#5C4346;" width="30" height="30"/>
<path d="M389.96,205.76c-24.247-30.629-53.432-58.674-76.872-79.295l2.902,0.335c0.286,0.033,0.573,0.05,0.861,0.05
	c10.589,0,19.216-10.094,19.23-22.51c0-12.401-8.622-22.49-19.22-22.49c-0.285,0-0.57,0.017-0.854,0.049L303.5,83.332v-7.515
	l12.488,1.443c0.286,0.033,0.573,0.05,0.861,0.05c10.589,0,19.216-10.09,19.23-22.5c0-11.759-7.748-21.435-17.58-22.413V7.5
	c0-4.143-3.357-7.5-7.5-7.5h-15h-80h-15c-4.142,0-7.5,3.357-7.5,7.5v25.027c-9.353,1.511-16.58,10.926-16.58,22.292
	c0.015,12.401,8.642,22.49,19.23,22.49c0.287,0,0.574-0.017,0.859-0.05l11.491-1.326v7.285l-11.504-1.321
	c-0.284-0.032-0.57-0.049-0.855-0.049c-10.598,0-19.22,10.089-19.22,22.5c0.015,12.406,8.642,22.5,19.23,22.5
	c0.287,0,0.574-0.017,0.859-0.05l1.752-0.202c-23.414,20.608-52.526,48.599-76.721,79.162C88.504,248.125,71.5,286.296,71.5,319.21
	c0,47.057,16.405,92.373,46.194,127.602c28.621,33.847,67.524,56.073,109.948,62.92c1.362,1.398,3.263,2.269,5.369,2.269h45.979
	c2.107,0,4.008-0.872,5.371-2.271c40.814-6.598,78.635-27.577,106.905-59.409c2.751-3.098,2.47-7.838-0.627-10.588
	c-3.1-2.752-7.839-2.469-10.588,0.627c-24.925,28.064-57.884,46.935-93.561,53.759V419h56.512c4.143,0,7.5-3.357,7.5-7.5v-54
	c0-4.143-3.357-7.5-7.5-7.5H308.5V142.448c21.913,19.625,47.907,45.095,69.698,72.622c31.387,39.65,47.302,74.688,47.302,104.14
	c0,34.4-9.382,67.775-27.13,96.516c-2.177,3.523-1.084,8.146,2.44,10.321c1.228,0.759,2.589,1.12,3.934,1.12
	c2.514,0,4.97-1.264,6.388-3.561c19.213-31.11,29.368-67.21,29.368-104.396C440.5,286.296,423.496,248.125,389.96,205.76z
	 M317.113,96.87c1.702,0.264,3.967,3.116,3.967,7.461c-0.005,4.367-2.272,7.231-3.976,7.498l-13.604-1.572V98.43L317.113,96.87z
	 M321.08,54.801c-0.005,4.361-2.272,7.222-3.976,7.488L303.5,60.717V48.89l13.613-1.56C318.815,47.594,321.08,50.451,321.08,54.801z
	 M208.5,15h7.5h80h7.5v15h-20.038c-4.143,0-7.5,3.357-7.5,7.5s3.357,7.5,7.5,7.5h5.038v77.273h-65l0,0l0,0l0,0l0,0V45l0,0l0,0
	h27.962c4.142,0,7.5-3.357,7.5-7.5s-3.357-7.5-7.5-7.5H208.5V15z M195.895,62.289c-1.702-0.267-3.97-3.126-3.975-7.479
	c0-4.357,2.265-7.215,3.967-7.479l12.613,1.448v12.057L195.895,62.289z M195.896,111.829c-1.703-0.267-3.97-3.13-3.976-7.489
	c0-4.353,2.265-7.205,3.967-7.47l12.613,1.448v12.057L195.896,111.829z M271.49,497H240.51v-77.771h30.979V497z M225.511,494.125
	C145.68,478.918,86.5,405.271,86.5,319.21c0-29.452,15.915-64.489,47.302-104.14c21.791-27.528,47.785-52.998,69.698-72.622v32.647
	c0,4.143,3.358,7.5,7.5,7.5s7.5-3.357,7.5-7.5v-37.822h75V350h-75V207.096c0-4.143-3.358-7.5-7.5-7.5s-7.5,3.357-7.5,7.5V350
	h-34.501c-4.142,0-7.5,3.357-7.5,7.5v54c0,4.143,3.358,7.5,7.5,7.5h56.512L225.511,494.125L225.511,494.125z M176.499,365h159.002
	v39H176.499V365"/>
<path d="M177.859,226.53c-5.693,0-31.59,11.55-23.22,56.23c3.11,16.59,0.47,29.06-7.86,37.07c-7.95,7.64-19.08,9.02-23.27,8.07
	c-4.04-0.93-8.06,1.6-8.98,5.64c-0.93,4.04,1.6,8.06,5.64,8.98c1.84,0.42,3.92,0.64,6.17,0.64c9.5,0,21.85-3.89,30.83-12.52
	c8.39-8.07,17.32-23.4,12.22-50.65c-5.89-31.42,7.15-37.6,9.75-38.51c0.01,0,0.01,0,0.02-0.01c3.54-0.61,6.23-3.69,6.23-7.41
	C185.389,229.9,182.019,226.53,177.859,226.53z"/>
<path d="M334.141,226.53c5.693,0,31.59,11.55,23.22,56.23c-3.11,16.59-0.47,29.06,7.86,37.07c7.95,7.64,19.08,9.02,23.27,8.07
	c4.04-0.93,8.06,1.6,8.98,5.64c0.93,4.04-1.6,8.06-5.64,8.98c-1.84,0.42-3.92,0.64-6.17,0.64c-9.5,0-21.85-3.89-30.83-12.52
	c-8.39-8.07-17.32-23.4-12.22-50.65c5.89-31.42-7.15-37.6-9.75-38.51c-0.01,0-0.01,0-0.02-0.01c-3.54-0.61-6.23-3.69-6.23-7.41
	C326.611,229.9,329.981,226.53,334.141,226.53z"/>
<g>
</g>
<g>
</g>
<g>
</g>
<g>
</g>
<g>
</g>
<g>
</g>
<g>
</g>
<g>
</g>
<g>
</g>
<g>
</g>
<g>
</g>
<g>
</g>
<g>
</g>
<g>
</g>
<g>
</g>
</svg>
