<?xml version="1.0" encoding="iso-8859-1"?>
<!-- Generator: Adobe Illustrator 19.0.0, SVG Export Plug-In . SVG Version: 6.00 Build 0)  -->
<svg version="1.1" id="Capa_1" xmlns="http://www.w3.org/2000/svg" xmlns:xlink="http://www.w3.org/1999/xlink" x="0px" y="0px"
	 viewBox="0 0 512.002 512.002" style="enable-background:new 0 0 512.002 512.002;" xml:space="preserve">
<path style="fill:#FF803C;" d="M225.284,259.345C364.318,120.311,367.234,86.123,389.857,10.883
	c0.892-2.965,4.571-4.411,6.506-2.557c9.525,9.123,98.189,97.787,107.312,107.312c1.854,1.936,0.408,5.615-2.557,6.506
	c-75.239,22.623-109.427,25.539-248.461,164.573L225.284,259.345z"/>
<path style="fill:#F76328;" d="M503.675,115.638c-5.137-5.363-35.495-35.82-62.742-63.038
	c21.139,21.161,40.336,40.457,44.326,44.622c1.854,1.936,0.408,5.615-2.557,6.506c-75.239,22.623-109.427,25.539-248.461,164.573
	l18.416,18.416c139.034-139.034,173.222-141.949,248.461-164.573C504.083,121.253,505.529,117.573,503.675,115.638z"/>
<polygon style="fill:#FF803C;" points="73.911,456.221 55.78,438.09 225.284,259.345 252.656,286.717 "/>
<path style="fill:#F76328;" d="M9.292,468.893l46.488-30.802l18.131,18.131l-30.802,46.488c-1.397,2.108-4.375,2.407-6.163,0.619
	L8.673,475.056C6.885,473.267,7.184,470.289,9.292,468.893z"/>
<path style="fill:#B44F02;" d="M248.241,302.863l-39.103-39.103c-1.08-1.08-0.728-3.183,0.786-4.697l15.078-15.078
	c1.514-1.514,3.617-1.866,4.697-0.786l39.103,39.103c1.08,1.08,0.728,3.183-0.786,4.697l-15.078,15.078
	C251.424,303.591,249.321,303.943,248.241,302.863z"/>
<path d="M509.09,110.452c-9.338-9.758-97.784-98.204-107.523-107.525c-2.673-2.575-6.501-3.528-10.241-2.552
	c-4.109,1.075-7.422,4.272-8.646,8.342c-1.539,5.116-2.987,10.044-4.393,14.828c-18.08,61.517-29.103,99.017-142.795,214.835
	l-0.488-0.488c-4.072-4.069-10.793-3.725-15.304,0.786l-15.079,15.079c-4.511,4.512-4.855,11.233-0.786,15.304l0.967,0.967
	l-18.724,19.748c-2.85,3.006-2.724,7.753,0.282,10.603c1.45,1.375,3.306,2.058,5.159,2.058c1.986,0,3.969-0.784,5.443-2.34
	l18.449-19.458l15.949,15.949L106.584,414.904c-3.006,2.85-3.132,7.597-0.282,10.603c1.475,1.556,3.457,2.34,5.443,2.34
	c1.853,0,3.709-0.683,5.159-2.058l125.067-118.59l0.967,0.967c1.901,1.9,4.381,2.839,6.943,2.839c2.924,0,5.956-1.222,8.36-3.625
	l15.08-15.079c4.511-4.512,4.855-11.233,0.786-15.304l-0.487-0.487c85.306-83.713,125.188-108.246,155.501-122.147
	c3.766-1.727,5.418-6.179,3.691-9.943c-1.726-3.766-6.179-5.419-9.943-3.691c-42.953,19.697-89.558,56.153-159.856,125.176
	l-16.915-16.915C362.508,130.42,373.934,91.551,392.679,27.775c0.935-3.182,1.888-6.427,2.875-9.75
	c18.329,18.064,80.318,80.054,98.42,98.421c-3.324,0.987-6.571,1.941-9.754,2.877c-10.732,3.154-20.869,6.134-30.8,9.458
	c-3.928,1.315-6.046,5.565-4.731,9.493c1.315,3.929,5.567,6.044,9.493,4.731c9.667-3.236,19.673-6.178,30.268-9.291
	c4.785-1.406,9.715-2.855,14.832-4.395c4.07-1.224,7.268-4.536,8.343-8.646C512.602,116.936,511.649,113.108,509.09,110.452z
	 M250.197,294.211l-32.407-32.407l9.955-9.955l32.407,32.407L250.197,294.211z"/>
<path d="M83.093,437.179l-9.041,8.572l-7.802-7.801l108.207-114.117c2.85-3.005,2.724-7.752-0.282-10.603
	c-3.004-2.849-7.752-2.725-10.603,0.282L50.931,432.305l-45.78,30.334c-2.889,1.914-4.745,4.989-5.092,8.437
	c-0.347,3.449,0.86,6.832,3.311,9.283l28.272,28.273c2.175,2.174,5.083,3.369,8.119,3.369c0.386,0,0.774-0.02,1.164-0.059
	c3.447-0.347,6.522-2.203,8.436-5.091l30.334-45.781l13.717-13.006c3.006-2.85,3.132-7.597,0.282-10.603
	C90.846,434.454,86.098,434.33,83.093,437.179z M13.434,475.145L13.434,475.145l0.007-0.005
	C13.439,475.142,13.436,475.143,13.434,475.145z M39.222,494.996l-22.217-22.217l37.808-25.052l9.461,9.461L39.222,494.996z"/>
<g>
</g>
<g>
</g>
<g>
</g>
<g>
</g>
<g>
</g>
<g>
</g>
<g>
</g>
<g>
</g>
<g>
</g>
<g>
</g>
<g>
</g>
<g>
</g>
<g>
</g>
<g>
</g>
<g>
</g>
</svg>
