<?xml version="1.0" encoding="iso-8859-1"?>
<!-- Generator: Adobe Illustrator 19.0.0, SVG Export Plug-In . SVG Version: 6.00 Build 0)  -->
<svg version="1.1" id="Capa_1" xmlns="http://www.w3.org/2000/svg" xmlns:xlink="http://www.w3.org/1999/xlink" x="0px" y="0px"
	 viewBox="0 0 512.001 512.001" style="enable-background:new 0 0 512.001 512.001;" xml:space="preserve">
<path style="fill:#F5A257;" d="M131.75,313.052C9.062,313.052,14.484,157.9,14.484,157.9h234.531
	C249.016,157.9,254.438,313.052,131.75,313.052z"/>
<path style="fill:#A66856;" d="M131.75,352.433c67.496,0,64.513,58.567,64.513,58.567H67.237
	C67.237,411,64.254,352.433,131.75,352.433z"/>
<path style="fill:#F5A257;" d="M380.25,313.052c-122.688,0-117.266-155.152-117.266-155.152h234.531
	C497.516,157.9,502.938,313.052,380.25,313.052z"/>
<g>
	<path style="fill:#DB8F52;" d="M497.516,157.9h-28.375c0,0,4.992,142.919-103.078,154.416c4.529,0.482,9.253,0.736,14.188,0.736
		C502.938,313.052,497.516,157.9,497.516,157.9z"/>
	<path style="fill:#DB8F52;" d="M249.016,157.9h-28.375c0,0,4.992,142.919-103.078,154.416c4.529,0.482,9.253,0.736,14.188,0.736
		C254.438,313.052,249.016,157.9,249.016,157.9z"/>
</g>
<path style="fill:#A66856;" d="M380.25,352.433c67.496,0,64.513,58.567,64.513,58.567H315.737
	C315.737,411,312.754,352.433,380.25,352.433z"/>
<rect x="301.87" y="380.37" style="fill:#8F5040;" width="156.76" height="30.629"/>
<rect x="428.63" y="380.37" style="fill:#75360D;" width="30" height="30.629"/>
<rect x="53.37" y="380.37" style="fill:#8F5040;" width="156.76" height="30.629"/>
<rect x="180.13" y="380.37" style="fill:#75360D;" width="30" height="30.629"/>
<path style="fill:#735458;" d="M252.263,157.905H11.237c-2.064,0-3.737-1.673-3.737-3.737v-19.066c0-2.064,1.673-3.737,3.737-3.737
	h241.026c2.064,0,3.737,1.673,3.737,3.737v19.066C256,156.232,254.327,157.905,252.263,157.905z"/>
<path style="fill:#FFDEA9;" d="M248.888,131.366H14.612v-16.635c0-7.583,6.147-13.731,13.731-13.731h206.815
	c7.583,0,13.731,6.147,13.731,13.731v16.635H248.888z"/>
<path style="fill:#735458;" d="M500.763,157.905H259.737c-2.064,0-3.737-1.673-3.737-3.737v-19.066c0-2.064,1.673-3.737,3.737-3.737
	h241.026c2.064,0,3.737,1.673,3.737,3.737v19.066C504.5,156.232,502.827,157.905,500.763,157.905z"/>
<g>
	<path style="fill:#5C4346;" d="M500.763,131.366h-30c2.064,0,3.737,1.673,3.737,3.737v19.065c0,2.064-1.673,3.737-3.737,3.737h30
		c2.064,0,3.737-1.673,3.737-3.737v-19.065C504.5,133.039,502.827,131.366,500.763,131.366z"/>
	<path style="fill:#5C4346;" d="M252.263,131.366h-30c2.064,0,3.737,1.673,3.737,3.737v19.065c0,2.064-1.673,3.737-3.737,3.737h30
		c2.064,0,3.737-1.673,3.737-3.737v-19.065C256,133.039,254.327,131.366,252.263,131.366z"/>
</g>
<path style="fill:#FFDEA9;" d="M497.388,131.366H263.112v-16.635c0-7.583,6.147-13.731,13.731-13.731h206.815
	c7.583,0,13.731,6.147,13.731,13.731L497.388,131.366L497.388,131.366z"/>
<g>
	<path style="fill:#FFBF7B;" d="M483.657,101H453.82c7.583,0,13.73,6.147,13.73,13.73v16.635h29.837V114.73
		C497.388,107.147,491.241,101,483.657,101z"/>
	<path style="fill:#FFBF7B;" d="M235.157,101H205.32c7.583,0,13.73,6.147,13.73,13.73v16.635h29.837V114.73
		C248.888,107.147,242.741,101,235.157,101z"/>
</g>
<path d="M504.888,124.66v-9.929c0-11.706-9.524-21.23-21.23-21.23H276.843c-10.344,0-18.972,7.44-20.843,17.248
	c-1.871-9.807-10.499-17.248-20.843-17.248H96.083c-4.143,0-7.5,3.357-7.5,7.5s3.357,7.5,7.5,7.5h139.074
	c3.436,0,6.23,2.795,6.23,6.23v9.135H22.112v-9.135c0-3.436,2.795-6.23,6.23-6.23h35.49c4.143,0,7.5-3.357,7.5-7.5
	s-3.357-7.5-7.5-7.5h-35.49c-11.706,0-21.23,9.524-21.23,21.23v9.929C2.953,126.309,0,130.363,0,135.103v19.065
	c0,4.686,2.885,8.707,6.969,10.391c0.376,20.942,4.802,83.925,42.937,123.416c2.316,2.398,4.719,4.658,7.199,6.794l18.831,71.394
	c-1.996,2.214-3.722,4.472-5.209,6.708H53.369c-4.143,0-7.5,3.357-7.5,7.5V411c0,4.143,3.357,7.5,7.5,7.5h156.762
	c4.143,0,7.5-3.357,7.5-7.5v-30.629c0-4.143-3.357-7.5-7.5-7.5h-17.358c-1.487-2.236-3.214-4.494-5.209-6.708l18.831-71.394
	c2.479-2.136,4.882-4.396,7.199-6.794c32.486-33.641,40.509-84.329,42.406-111.556c1.897,27.227,9.92,77.915,42.406,111.556
	c2.316,2.398,4.719,4.658,7.199,6.794l18.831,71.394c-1.996,2.214-3.722,4.472-5.209,6.708h-17.358c-4.143,0-7.5,3.357-7.5,7.5V411
	c0,4.143,3.357,7.5,7.5,7.5H416c4.143,0,7.5-3.357,7.5-7.5s-3.357-7.5-7.5-7.5H309.369v-15.629h26.555
	c0.004,0,0.008,0.001,0.012,0.001c0.005,0,0.01-0.001,0.015-0.001h88.599c0.005,0,0.01,0.001,0.015,0.001
	c0.004,0,0.008-0.001,0.012-0.001h26.555V403.5h-3.298c-4.143,0-7.5,3.357-7.5,7.5s3.357,7.5,7.5,7.5h10.798
	c4.143,0,7.5-3.357,7.5-7.5v-30.629c0-4.143-3.357-7.5-7.5-7.5h-17.358c-1.487-2.236-3.214-4.494-5.209-6.708l18.831-71.394
	c2.479-2.136,4.882-4.396,7.199-6.794c38.135-39.491,42.561-102.474,42.937-123.416c4.085-1.684,6.969-5.705,6.969-10.391v-19.065
	C512,130.363,509.047,126.309,504.888,124.66z M441.642,286.199c-14.822,11.489-32.877,17.893-53.892,19.112V165.405h85.754
	L441.642,286.199z M418.781,372.871H387.75v-12.647c12.973,0.979,23.515,4.573,31.532,10.749L418.781,372.871z M341.719,372.871
	l-0.501-1.898c8.017-6.176,18.559-9.77,31.532-10.749v12.647H341.719z M286.996,165.405h85.754v139.906
	c-21.015-1.219-39.07-7.623-53.892-19.112L286.996,165.405z M193.142,286.199c-14.822,11.489-32.877,17.893-53.892,19.112v-16.285
	c0-4.143-3.357-7.5-7.5-7.5s-7.5,3.357-7.5,7.5v16.285c-21.015-1.219-39.07-7.623-53.892-19.112L38.496,165.405h85.754v91.621
	c0,4.143,3.357,7.5,7.5,7.5c4.143,0,7.5-3.357,7.5-7.5v-91.621h85.754L193.142,286.199z M170.281,372.871H139.25v-12.647
	c12.973,0.979,23.515,4.573,31.532,10.749L170.281,372.871z M93.219,372.871l-0.501-1.898c8.017-6.176,18.559-9.77,31.532-10.749
	v12.647H93.219z M497,150.4H263.5v-11.535H497V150.4z M270.612,114.73c0-3.436,2.795-6.23,6.23-6.23h206.814
	c3.436,0,6.23,2.795,6.23,6.23v9.135H270.612V114.73z M248.5,138.865V150.4H15v-11.535L248.5,138.865L248.5,138.865z
	 M22.031,165.405h0.951l25.513,96.726C26.099,227.861,22.534,182.775,22.031,165.405z M124.25,320.355v24.823
	c-15.251,1-26.822,5.026-35.588,10.417l-12.63-47.882C90.211,315.213,106.329,319.44,124.25,320.355z M202.631,403.5H60.869v-15.629
	h26.555c0.004,0,0.008,0.001,0.012,0.001c0.005,0,0.01-0.001,0.015-0.001h88.599c0.005,0,0.01,0.001,0.015,0.001
	c0.004,0,0.008-0.001,0.012-0.001h26.555L202.631,403.5L202.631,403.5z M174.838,355.594c-8.767-5.391-20.338-9.417-35.588-10.417
	v-24.823c17.921-0.915,34.039-5.142,48.218-12.643L174.838,355.594z M240.517,165.405h0.95
	c-0.501,17.372-4.066,62.456-26.464,96.726L240.517,165.405z M270.531,165.405h0.951l25.513,96.726
	C274.599,227.861,271.034,182.775,270.531,165.405z M372.75,320.355v24.823c-15.251,1-26.822,5.026-35.588,10.417l-12.63-47.882
	C338.711,315.213,354.829,319.44,372.75,320.355z M423.338,355.594c-8.767-5.391-20.338-9.417-35.588-10.417v-24.823
	c17.921-0.915,34.039-5.142,48.218-12.643L423.338,355.594z M489.017,165.405h0.95c-0.501,17.372-4.066,62.456-26.464,96.726
	L489.017,165.405z"/>
<g>
</g>
<g>
</g>
<g>
</g>
<g>
</g>
<g>
</g>
<g>
</g>
<g>
</g>
<g>
</g>
<g>
</g>
<g>
</g>
<g>
</g>
<g>
</g>
<g>
</g>
<g>
</g>
<g>
</g>
</svg>
