<?xml version="1.0" encoding="iso-8859-1"?>
<!-- Generator: Adobe Illustrator 19.0.0, SVG Export Plug-In . SVG Version: 6.00 Build 0)  -->
<svg version="1.1" id="Capa_1" xmlns="http://www.w3.org/2000/svg" xmlns:xlink="http://www.w3.org/1999/xlink" x="0px" y="0px"
	 viewBox="0 0 511.999 511.999" style="enable-background:new 0 0 511.999 511.999;" xml:space="preserve">
<path style="fill:#735458;" d="M400.81,68H111.897c-2.233,0-4.043-1.81-4.043-4.043V46.043c0-2.233,1.81-4.043,4.043-4.043H400.81
	c2.233,0,4.043,1.81,4.043,4.043v17.913C404.854,66.19,403.044,68,400.81,68z"/>
<path style="fill:#FFDEA9;" d="M86.974,228.883c0,0-12.975,0-12.975-28.848L93.035,57.779C94.118,48.774,101.744,42,110.795,42
	h0.335c5.186,0,9.206,4.543,8.585,9.701L99.948,215.883C99.948,223.062,94.14,228.883,86.974,228.883z"/>
<path style="fill:#F3B573;" d="M173.693,479.012C146.594,387.18,79.396,261.749,118.065,64.5c48.691,0,227.886,0,276.577,0
	c38.67,197.249-28.529,322.68-55.628,414.512C311.636,479.012,201.072,479.012,173.693,479.012z"/>
<path style="fill:#F5A257;" d="M394.643,64.5c-7.498,0-18.099,0-30.833,0c38.67,197.249-28.529,322.68-55.628,414.512
	c13.421,0,24.414,0,30.833,0C366.114,387.18,433.313,261.749,394.643,64.5z"/>
<g>
	<path style="fill:#735458;" d="M259.456,273.47h-6.204c-16.575,0-30.011-13.436-30.011-30.011v-35.338
		c0-16.575,13.436-30.011,30.011-30.011h6.204c16.575,0,30.011,13.436,30.011,30.011v35.338
		C289.467,260.034,276.031,273.47,259.456,273.47z"/>
	<path style="fill:#735458;" d="M104.229,268.909L104.229,268.909c-12.867,0-23.298-10.431-23.298-23.298v-49.322
		c0-7.851,6.364-14.215,14.215-14.215h14.736c7.851,0,14.215,6.364,14.215,14.215v52.751
		C124.098,260.014,115.202,268.909,104.229,268.909z"/>
	<path style="fill:#735458;" d="M407.769,268.909L407.769,268.909c12.867,0,23.298-10.431,23.298-23.298v-49.322
		c0-7.851-6.364-14.215-14.215-14.215h-14.736c-7.851,0-14.215,6.364-14.215,14.215v52.751
		C387.901,260.014,396.797,268.909,407.769,268.909z"/>
</g>
<path style="fill:#FFDEA9;" d="M396.354,42h-280V23.5c0-8.837,7.163-16,16-16h248c8.837,0,16,7.163,16,16V42z"/>
<path style="fill:#FFBF7B;" d="M380.354,7.5h-30c8.837,0,16,7.164,16,16V42h30V23.5C396.354,14.664,389.19,7.5,380.354,7.5z"/>
<rect x="166.35" y="474.5" style="fill:#735458;" width="180" height="30"/>
<rect x="316.349" y="474.5" style="fill:#5C4346;" width="30" height="30"/>
<path style="fill:#FFBF7B;" d="M425.024,228.883c0,0,12.975,0,12.975-28.848L418.964,57.779C417.88,48.774,410.255,42,401.203,42
	h-0.335c-5.186,0-9.206,4.543-8.585,9.701l19.766,164.181C412.05,223.062,417.859,228.883,425.024,228.883z"/>
<path style="fill:#FFDEA9;" d="M256.354,229.181L256.354,229.181c-7.18,0-13-5.82-13-13V42.298h26v173.883
	C269.354,223.361,263.534,229.181,256.354,229.181z"/>
<path d="M445.5,200.035c0-0.333-0.022-0.665-0.066-0.995l-10.21-76.305c-0.549-4.104-4.318-6.993-8.428-6.438
	c-4.105,0.549-6.988,4.322-6.439,8.429l10.142,75.799c-0.069,12.202-2.728,17.771-4.671,19.867
	c-0.063,0.061-0.122,0.125-0.182,0.188c-0.412,0.409-0.787,0.662-1.087,0.784c-2.801-0.239-5.008-2.605-5.008-5.48
	c0-0.3-0.018-0.599-0.054-0.896l-5.897-48.982v-0.001l-13.87-115.2c-0.052-0.435,0.126-0.739,0.286-0.919
	c0.156-0.176,0.43-0.386,0.853-0.386h0.001h0.333c5.251,0,9.686,3.944,10.328,9.273l4.543,33.952
	c0.549,4.104,4.317,6.984,8.428,6.438c4.105-0.549,6.988-4.322,6.439-8.429l-4.53-33.854c-1.429-11.87-10.91-21.014-22.557-22.233
	V23.5c0-12.958-10.542-23.5-23.5-23.5H191.999c-4.142,0-7.5,3.357-7.5,7.5s3.358,7.5,7.5,7.5h188.354c4.687,0,8.5,3.813,8.5,8.5v11
	h-265v-11c0-4.687,3.813-8.5,8.5-8.5h27.646c4.142,0,7.5-3.357,7.5-7.5s-3.358-7.5-7.5-7.5h-27.646c-12.958,0-23.5,10.542-23.5,23.5
	v11.091c-11.965,0.916-21.804,10.177-23.258,22.195l-19.03,142.25c-0.044,0.329-0.066,0.661-0.066,0.994
	c0,12.604,2.33,22.147,6.933,28.439v17.142c0,16.982,13.815,30.798,30.797,30.798c0.832,0,1.653-0.043,2.466-0.117
	c8.204,49.529,21.544,92.103,34.838,130.83c1.068,3.111,3.978,5.067,7.093,5.067c0.808,0,1.629-0.132,2.436-0.408
	c3.918-1.345,6.003-5.611,4.659-9.528c-13.364-38.933-26.763-81.784-34.737-131.595c6.451-5.011,10.613-12.834,10.613-21.617
	v-52.752c0-10.599-7.634-19.442-17.691-21.335c0.063-5.271,0.193-10.473,0.395-15.535L124.407,75.5h111.446v99.391
	c-12.217,6.39-20.114,19.139-20.114,33.229v35.34c0,20.683,16.827,37.51,37.51,37.51h6.21c20.683,0,37.51-16.827,37.51-37.51v-35.34
	c0-14.086-7.897-26.833-20.116-33.226V75.5h110.741l11.074,91.981c0.06,2.419,0.106,4.871,0.136,7.342
	c-10.409,1.601-18.405,10.617-18.405,21.467v52.75c0,9.073,4.441,17.124,11.259,22.106c-9.576,59.514-26.925,109.103-42.283,152.993
	c-5.252,15.008-10.244,29.278-14.528,42.86H177.854c-3.295-10.451-7.084-21.546-11.622-34.558c-1.364-3.91-5.641-5.974-9.551-4.612
	c-3.911,1.364-5.976,5.641-4.612,9.552c3.999,11.468,7.408,21.418,10.394,30.716c-2.161,1.316-3.609,3.687-3.609,6.402v30
	c0,4.143,3.358,7.5,7.5,7.5h180c4.142,0,7.5-3.357,7.5-7.5v-30c0-2.716-1.448-5.087-3.609-6.403
	c3.971-12.359,8.518-25.369,13.289-39.003c15.326-43.796,32.605-93.197,42.471-152.747c0.584,0.037,1.172,0.063,1.765,0.063
	c16.983,0,30.8-13.816,30.8-30.8v-17.07C442.381,223.303,445.5,214.582,445.5,200.035z M338.854,497h-165v-15h165V497z
	 M261.854,67.913c0,0.029-0.004,0.058-0.004,0.087s0.004,0.058,0.004,0.087v111.425c-0.002,0.059,0.001,0.117,0,0.176v36.493
	c0,3.032-2.467,5.5-5.5,5.5c-3.033,0-5.5-2.468-5.5-5.5V49.799h11V67.913z M100.475,58.682c0.633-5.234,5.072-9.182,10.324-9.182
	h0.33c0.426,0,0.702,0.21,0.858,0.387c0.159,0.179,0.337,0.484,0.286,0.917L99.4,157.698c-0.004,0.028-0.006,0.058-0.01,0.086
	l-2.022,16.79h-2.221c-3.824,0-7.418,0.997-10.542,2.74L100.475,58.682z M116.598,196.289v52.752
	c0,6.819-5.548,12.368-12.369,12.368c-8.711,0-15.797-7.087-15.797-15.798v-49.322c0-3.702,3.012-6.715,6.715-6.715h14.736
	C113.585,189.574,116.598,192.587,116.598,196.289z M126.213,60.5l0.952-7.905c0.124-1.035,0.133-2.07,0.059-3.095h108.629v11
	H126.213z M281.969,208.12v35.34c0,12.412-10.098,22.51-22.51,22.51h-6.21c-12.412,0-22.51-10.098-22.51-22.51v-35.34
	c0-5.332,1.886-10.342,5.114-14.279v22.34c0,11.304,9.196,20.5,20.5,20.5c11.304,0,20.5-9.196,20.5-20.5v-22.335
	C280.083,197.782,281.969,202.791,281.969,208.12z M276.854,60.5v-11h107.924c-0.074,1.025-0.065,2.062,0.06,3.098l0.951,7.902
	H276.854z M407.769,261.41c-6.821,0-12.37-5.549-12.37-12.37v-52.75c0-3.439,2.598-6.279,5.934-6.67l3.222,26.763
	c0.254,10.584,8.567,19.187,19.014,19.927v9.3C423.57,254.322,416.482,261.41,407.769,261.41z"/>
<g>
</g>
<g>
</g>
<g>
</g>
<g>
</g>
<g>
</g>
<g>
</g>
<g>
</g>
<g>
</g>
<g>
</g>
<g>
</g>
<g>
</g>
<g>
</g>
<g>
</g>
<g>
</g>
<g>
</g>
</svg>
