<?xml version="1.0" encoding="iso-8859-1"?>
<!-- Generator: Adobe Illustrator 19.0.0, SVG Export Plug-In . SVG Version: 6.00 Build 0)  -->
<svg version="1.1" id="Capa_1" xmlns="http://www.w3.org/2000/svg" xmlns:xlink="http://www.w3.org/1999/xlink" x="0px" y="0px"
	 viewBox="0 0 512 512" style="enable-background:new 0 0 512 512;" xml:space="preserve">
<path style="fill:#F3B573;" d="M284.948,446.383c-80.354,80.37-167.796,69.16-228.642,8.302s-72.054-148.319,8.3-228.69
	s221.84-123.215,282.686-62.357S365.301,366.012,284.948,446.383z"/>
<path style="fill:#F5A257;" d="M347.292,163.638c-3.629-3.63-7.554-6.88-11.727-9.787c45.825,65.797,3.449,195.449-72.117,271.031
	c-75.557,75.572-157.378,70.167-217.465,18.656c3.261,3.804,6.701,7.523,10.323,11.146c60.846,60.858,148.289,72.068,228.642-8.302
	S408.137,224.497,347.292,163.638z"/>
<polygon style="fill:#735458;" points="178.097,442.221 68.767,332.868 90.633,310.997 199.963,420.35 "/>
<g>
	<polygon style="fill:#5C4346;" points="178.097,442.221 156.249,420.332 178.115,398.462 199.963,420.35 	"/>
	<circle style="fill:#5C4346;" cx="222.52" cy="288.44" r="39"/>
</g>
<polygon style="fill:#735458;" points="335.967,237.27 273.675,174.965 389.172,59.443 451.465,121.749 "/>
<g>
	<polygon style="fill:#5C4346;" points="335.967,237.27 314.532,215.813 430.029,100.292 451.465,121.749 	"/>
	<polygon style="fill:#5C4346;" points="498.04,60.38 451.46,121.75 430.47,100.75 389.17,59.44 450.52,12.86 477.04,39.38 	"/>
	<polygon style="fill:#5C4346;" points="498.04,60.38 451.46,121.75 430.47,100.75 477.04,39.38 	"/>
</g>
<path d="M509.805,91.099l-14.584-14.593l8.795-11.588c2.266-2.985,1.98-7.187-0.67-9.837L455.832,7.554
	c-2.651-2.652-6.853-2.938-9.839-0.671l-11.582,8.795L421.93,3.196c-2.928-2.928-7.677-2.928-10.606,0
	c-2.929,2.93-2.929,7.678,0,10.607l11.03,11.031l-10.223,7.763l-9.8-9.801c-2.929-2.93-7.677-2.929-10.606-0.001
	c-2.929,2.929-2.929,7.678,0,10.607l8.35,8.351L384.646,53.47c-0.036,0.027-0.067,0.059-0.102,0.087
	c-0.113,0.089-0.222,0.184-0.33,0.28c-0.086,0.076-0.174,0.151-0.256,0.232c-0.026,0.025-0.054,0.046-0.079,0.072l-20.835,20.841
	c-2.928,2.929-2.928,7.678,0.001,10.607c2.929,2.928,7.677,2.929,10.606-0.001l15.532-15.536l51.683,51.699l0,0L335.98,226.664
	c-0.019,0.019,0,0-0.019,0.019l0.019-0.019l-51.683-51.699l66.733-66.752c2.928-2.93,2.928-7.678-0.001-10.607
	c-2.929-2.928-7.677-2.929-10.606,0.001l-34.617,34.627c-34.22-9.119-77.827-5.199-123.467,11.204
	c-46.073,16.558-89.755,43.992-123,77.25c-6.677,6.679-12.892,13.571-18.471,20.485c-2.601,3.223-2.097,7.945,1.126,10.546
	c1.387,1.12,3.052,1.664,4.706,1.664c2.189,0,4.359-0.953,5.84-2.79c5.247-6.502,11.103-12.995,17.407-19.3
	c31.714-31.726,73.43-57.913,117.465-73.739c38.952-13.997,75.964-18.404,105.873-12.795l-24.895,24.903
	c-2.928,2.929-2.928,7.677,0,10.606l62.288,62.306c1.406,1.407,3.314,2.197,5.303,2.197s3.897-0.79,5.303-2.197l24.895-24.902
	c2.785,14.796,3.125,31.313,0.979,49.3c-0.491,4.113,2.446,7.845,6.558,8.336c0.302,0.036,0.601,0.054,0.898,0.054
	c3.745,0,6.982-2.802,7.437-6.612c2.802-23.481,1.672-44.849-3.342-63.612l78.064-78.086c0.026-0.026,0.047-0.054,0.072-0.08
	c0.081-0.084,0.158-0.173,0.236-0.261c0.1-0.113,0.199-0.226,0.291-0.344c0.023-0.029,0.049-0.055,0.071-0.084l11.716-15.438
	l10.449,10.456c1.464,1.466,3.384,2.198,5.304,2.198c1.918,0,3.837-0.731,5.301-2.195c2.929-2.928,2.931-7.677,0.003-10.607
	l-11.905-11.913l7.756-10.22l13.128,13.136c1.465,1.466,3.384,2.198,5.304,2.198c1.918,0,3.838-0.731,5.301-2.195
	C512.731,98.778,512.733,94.028,509.805,91.099z M449.852,22.788l38.262,38.273l-37.42,49.305l-50.133-50.147L449.852,22.788z"/>
<path d="M370.532,291.998c-4.013-1.025-8.096,1.405-9.116,5.421c-13.21,51.964-43.772,105.67-81.754,143.661
	c-36.285,36.291-76.438,55.289-116.259,54.914c-36.423-0.335-71.61-16.454-101.759-46.616
	c-24.004-24.005-39.431-51.901-44.614-80.671c-5.573-30.937,0.406-62.001,17.77-92.331c2.058-3.595,0.812-8.177-2.782-10.235
	c-3.593-2.056-8.176-0.812-10.235,2.782C2.62,302.396-3.946,336.863,2.269,371.367c5.728,31.795,22.592,62.439,48.769,88.618
	c32.985,32.998,71.792,50.636,112.227,51.009c0.426,0.004,0.847,0.006,1.273,0.006c43.465,0,86.915-20.491,125.731-59.315
	c39.807-39.817,71.838-96.105,85.684-150.571C376.974,297.099,374.547,293.018,370.532,291.998z"/>
<path d="M90.662,303.499c-1.989,0-3.897,0.79-5.303,2.197l-21.865,21.871c-2.928,2.929-2.928,7.677,0,10.606l109.322,109.353
	c1.406,1.407,3.314,2.197,5.303,2.197s3.897-0.79,5.303-2.197l21.865-21.87c2.928-2.929,2.928-7.677,0-10.606L95.966,305.696
	C94.559,304.289,92.651,303.499,90.662,303.499z M178.12,431.616L79.402,332.87l11.26-11.264l98.718,98.747L178.12,431.616z"/>
<path d="M255.419,321.318c8.782-8.783,13.619-20.46,13.619-32.881s-4.837-24.099-13.619-32.881c-18.13-18.128-47.628-18.13-65.756,0
	c-8.782,8.782-13.619,20.46-13.619,32.881s4.837,24.098,13.619,32.881c9.064,9.065,20.971,13.598,32.878,13.598
	C234.448,334.916,246.355,330.383,255.419,321.318z M191.043,288.437c0-8.414,3.276-16.324,9.225-22.274
	c6.141-6.142,14.207-9.212,22.272-9.212c8.066,0,16.132,3.07,22.272,9.212c5.949,5.949,9.225,13.859,9.225,22.274
	s-3.276,16.324-9.225,22.274c-12.281,12.283-32.263,12.283-44.545,0C194.319,304.761,191.043,296.851,191.043,288.437z"/>
<path d="M412.757,130.902c1.919,0,3.838-0.732,5.302-2.196c2.929-2.929,2.929-7.678,0.001-10.607l-25.228-25.235
	c-2.928-2.93-7.677-2.929-10.606-0.001c-2.929,2.929-2.929,7.678-0.001,10.607l25.228,25.235
	C408.917,130.169,410.837,130.902,412.757,130.902z"/>
<path d="M382.598,153.567c1.464,1.465,3.384,2.197,5.303,2.197s3.838-0.732,5.302-2.196c2.929-2.929,2.93-7.677,0.001-10.607
	l-25.228-25.236c-2.928-2.929-7.676-2.93-10.606-0.001c-2.929,2.929-2.929,7.677-0.001,10.607L382.598,153.567z"/>
<path d="M363.048,180.626c1.919,0,3.838-0.732,5.302-2.196c2.929-2.929,2.929-7.677,0.001-10.607l-25.228-25.236
	c-2.928-2.929-7.676-2.93-10.606-0.001c-2.929,2.929-2.929,7.677-0.001,10.607l25.228,25.236
	C359.208,179.893,361.128,180.626,363.048,180.626z"/>
<path d="M307.662,167.448c-2.929,2.929-2.93,7.677-0.001,10.607l25.228,25.236c1.464,1.465,3.384,2.197,5.303,2.197
	s3.838-0.732,5.302-2.196c2.929-2.929,2.929-7.677,0.001-10.607l-25.228-25.236C315.34,164.52,310.591,164.519,307.662,167.448z"/>
<g>
</g>
<g>
</g>
<g>
</g>
<g>
</g>
<g>
</g>
<g>
</g>
<g>
</g>
<g>
</g>
<g>
</g>
<g>
</g>
<g>
</g>
<g>
</g>
<g>
</g>
<g>
</g>
<g>
</g>
</svg>
