<?xml version="1.0" encoding="iso-8859-1"?>
<!-- Generator: Adobe Illustrator 19.0.0, SVG Export Plug-In . SVG Version: 6.00 Build 0)  -->
<svg version="1.1" id="Capa_1" xmlns="http://www.w3.org/2000/svg" xmlns:xlink="http://www.w3.org/1999/xlink" x="0px" y="0px"
	 viewBox="0 0 512.002 512.002" style="enable-background:new 0 0 512.002 512.002;" xml:space="preserve">
<path style="fill:#F3B573;" d="M410.402,137.031l-40.68,40.68c-32.98,32.98-58.56,72.61-75.03,116.25
	c-23.87,63.26-60.77,153.58-85.33,178.13c-46.72,46.73-117.22,41.21-163.94-5.51c-0.66-0.66-1.32-1.33-1.97-2.01
	c-0.18-0.18-0.35-0.36-0.51-0.54c-0.59-0.61-1.17-1.24-1.74-1.86c-1.43-1.55-2.81-3.13-4.14-4.74c-0.33-0.38-0.65-0.77-0.97-1.17
	c-0.47-0.57-0.93-1.14-1.39-1.72c-36.56-46.16-37.66-109.04,5.2-151.9c24.56-24.56,114.88-61.46,178.14-85.34
	c43.64-16.47,83.26-42.04,116.25-75.03l40.67-40.67l12.67,12.67L410.402,137.031z"/>
<path style="fill:#F5A257;" d="M410.402,137.031l-40.68,40.68c-32.98,32.98-58.56,72.61-75.03,116.25
	c-23.87,63.26-60.77,153.58-85.33,178.13c-46.72,46.73-117.22,41.21-163.94-5.51c-0.66-0.66-1.32-1.33-1.97-2.01
	c-0.18-0.18-0.35-0.36-0.51-0.54c-0.59-0.61-1.17-1.24-1.74-1.86c-1.43-1.55-2.81-3.13-4.14-4.74c-0.33-0.38-0.65-0.77-0.97-1.17
	c-0.47-0.57-0.93-1.14-1.39-1.72c46.16,36.55,109.03,37.65,151.89-5.21c24.56-24.56,61.47-114.87,85.34-178.13
	c16.47-43.65,42.05-83.27,75.03-116.25l40.67-40.68L410.402,137.031z"/>
<rect x="43.254" y="396.83" transform="matrix(-0.7071 -0.7071 0.7071 -0.7071 -122.905 774.9916)" style="fill:#A66856;" width="111.599" height="32.24"/>
<rect x="112.844" y="425.656" transform="matrix(-0.7071 -0.7071 0.7071 -0.7071 -94.0717 844.5853)" style="fill:#8F5040;" width="30.08" height="32.24"/>
<g>
	<path style="fill:#735458;" d="M455.885,122.798l-26.599-40.089l-40.102-26.584c-5.818-5.815-6.002-15.06-0.412-20.648l0,0
		c5.588-5.585,14.83-5.401,20.646,0.412l26.71,39.979l39.991,26.694c5.818,5.815,6.002,15.06,0.412,20.648l0,0
		C470.943,128.795,461.701,128.611,455.885,122.798z"/>
	<path style="fill:#735458;" d="M414.285,164.399l-27.271-39.408l-39.43-27.265c-5.818-5.815-6.002-15.06-0.412-20.648l0,0
		c5.588-5.585,14.83-5.401,20.646,0.412l27.77,38.928l38.93,27.745c5.818,5.815,6.002,15.06,0.412,20.648l0,0
		C429.343,170.396,420.1,170.212,414.285,164.399z"/>
</g>
<path style="fill:#A66856;" d="M486.952,61.771l-103.72,114.14c-3.65,4.01-8.44,5.86-10.32,3.98l-21.14-21.12l-19.68-19.67
	c-1.88-1.87-0.05-6.64,3.94-10.28l113.85-104.01l15.92,15.87L486.952,61.771z"/>
<path style="fill:#8F5040;" d="M486.952,61.771l-103.72,114.14c-3.65,4.01-8.44,5.86-10.32,3.98l-21.14-21.12l0.01-0.01
	c1.88,1.88,6.68,0.04,10.32-3.97l103.7-114.11L486.952,61.771z"/>
<circle style="fill:#FFDEA9;" cx="468.752" cy="43.251" r="35.75"/>
<path style="fill:#FFBF7B;" d="M481.251,9.752c1.453,3.891,2.251,8.101,2.251,12.499c0,19.744-16.006,35.75-35.75,35.75
	c-4.398,0-8.608-0.798-12.499-2.251c5.069,13.579,18.153,23.251,33.499,23.251c19.744,0,35.75-16.006,35.75-35.75
	C504.502,27.905,494.83,14.821,481.251,9.752z"/>
<path d="M261.891,375.897c-3.793-1.658-8.217,0.07-9.878,3.864c-25.133,57.438-39.944,79.028-47.945,87.026
	c-20.745,20.75-47.841,31.441-76.312,30.1c-28.021-1.318-55.372-13.965-77.016-35.61c-21.645-21.645-34.291-48.997-35.611-77.019
	c-1.34-28.467,9.346-55.569,30.092-76.314c18.005-18.007,80.325-47.706,175.478-83.627c20.024-7.557,39.411-17.08,57.622-28.305
	c3.525-2.173,4.622-6.794,2.449-10.32c-2.173-3.524-6.794-4.62-10.32-2.449c-17.397,10.723-35.918,19.82-55.048,27.041
	c-68.694,25.932-155.821,62.085-180.789,87.053c-48.179,48.182-45.806,123.22,5.519,174.548
	c24.291,24.291,55.159,38.492,86.918,39.986c1.839,0.087,3.669,0.13,5.496,0.13c30.711,0,59.695-12.169,82.127-34.605
	c13.146-13.143,29.854-43.112,51.08-91.62C267.416,381.98,265.686,377.558,261.891,375.897z"/>
<path d="M88.488,414.562c-2.929-2.928-7.676-2.928-10.607,0c-2.929,2.93-2.929,7.678,0,10.607l43.937,43.939
	c1.407,1.406,3.314,2.196,5.304,2.196c1.989,0,3.896-0.79,5.304-2.196l22.796-22.797c2.929-2.93,2.929-7.678,0-10.607
	l-78.908-78.912c-1.407-1.406-3.314-2.196-5.304-2.196s-3.896,0.79-5.304,2.196L42.91,379.589c-1.406,1.407-2.196,3.314-2.196,5.304
	s0.79,3.897,2.197,5.304l12.285,12.284c2.928,2.928,7.676,2.929,10.606-0.001c2.929-2.929,2.929-7.678-0.001-10.606l-6.981-6.98
	l12.19-12.19l68.302,68.306l-12.19,12.19L88.488,414.562z"/>
<path d="M270.618,283.961c1.919,0,3.839-0.732,5.304-2.196c2.929-2.93,2.929-7.678,0-10.607l-35.07-35.072
	c-2.929-2.927-7.676-2.929-10.607,0c-2.929,2.93-2.929,7.678,0,10.607l35.07,35.072
	C266.779,283.229,268.698,283.961,270.618,283.961z"/>
<path d="M242.309,312.272c1.919,0,3.839-0.732,5.304-2.196c2.929-2.93,2.929-7.678,0-10.607l-35.071-35.072
	c-2.93-2.928-7.677-2.928-10.607,0c-2.929,2.93-2.929,7.678,0,10.607l35.071,35.072C238.47,311.539,240.39,312.272,242.309,312.272z
	"/>
<path d="M214,340.582c1.919,0,3.839-0.732,5.304-2.196c2.929-2.93,2.929-7.678,0-10.607l-35.07-35.072
	c-2.93-2.927-7.677-2.929-10.607,0c-2.929,2.93-2.929,7.678,0,10.607l35.07,35.072C210.161,339.85,212.08,340.582,214,340.582z"/>
<path d="M185.691,368.893c1.919,0,3.839-0.732,5.304-2.196c2.929-2.93,2.929-7.678,0-10.607l-35.071-35.072
	c-2.93-2.928-7.677-2.928-10.607,0c-2.929,2.93-2.929,7.678,0,10.607l35.071,35.072C181.852,368.16,183.772,368.893,185.691,368.893
	z"/>
<path d="M512.002,43.251c0-23.848-19.402-43.25-43.249-43.25c-21.525,0-39.423,15.81-42.705,36.426l-4.498,4.11l-5.89-8.813
	c-0.275-0.412-0.591-0.796-0.941-1.146c-4.314-4.3-9.998-6.667-16.003-6.667c-5.789,0-11.202,2.226-15.238,6.262
	c-4.048,4.04-6.277,9.456-6.278,15.249c-0.001,6.016,2.374,11.7,6.687,16.007c0.353,0.352,0.739,0.668,1.155,0.943l7.306,4.844
	l-13.704,12.521l-4.713-6.603c-0.243-0.34-0.514-0.659-0.81-0.954c-4.314-4.301-9.998-6.669-16.004-6.669
	c-5.789,0-11.202,2.226-15.239,6.263c-4.049,4.041-6.278,9.458-6.277,15.252c0,6.016,2.375,11.698,6.687,16.004
	c0.318,0.316,0.664,0.604,1.033,0.86l5.057,3.497l-17.396,15.894c-4.365,3.981-7.028,9.03-7.125,13.507
	c-0.034,1.57,0.253,3.065,0.812,4.416c-8.988,8.654-18.528,16.832-28.431,24.356c-3.299,2.506-3.94,7.211-1.435,10.509
	c1.476,1.942,3.713,2.963,5.977,2.963c1.581,0,3.176-0.498,4.531-1.528c10.242-7.783,20.111-16.234,29.417-25.168l24.954,24.937
	c-31.625,32.903-55.845,71.229-72.002,114.042c-7.924,20.997-15.702,40.787-23.119,58.82c-1.575,3.831,0.253,8.214,4.083,9.79
	c0.934,0.384,1.9,0.565,2.85,0.565c2.95,0,5.747-1.752,6.939-4.648c7.472-18.169,15.305-38.098,23.279-59.231
	c15.491-41.047,38.741-77.775,69.114-109.283c1.274,0.524,2.674,0.803,4.142,0.803c0.093,0,0.186-0.001,0.279-0.004
	c4.484-0.104,9.543-2.783,13.536-7.17l15.8-17.387l3.531,5.102c0.259,0.373,0.551,0.723,0.872,1.043
	c4.314,4.3,9.998,6.668,16.004,6.668c5.79,0,11.203-2.226,15.243-6.267c8.496-8.497,8.314-22.517-0.406-31.252
	c-0.296-0.296-0.615-0.567-0.957-0.811l-6.739-4.799l12.532-13.791l4.966,7.485c0.278,0.42,0.599,0.81,0.955,1.165
	c4.314,4.301,9.995,6.669,15.995,6.669c5.794,0,11.21-2.226,15.253-6.267c8.496-8.497,8.314-22.517-0.405-31.253
	c-0.35-0.35-0.733-0.665-1.145-0.939l-9.083-6.063l3.836-4.221C495.918,82.984,512.002,64.963,512.002,43.251z M468.753,15.001
	c15.577,0,28.249,12.673,28.249,28.25s-12.672,28.25-28.249,28.25s-28.249-12.673-28.249-28.25S453.177,15.001,468.753,15.001z
	 M394.056,50.352c-1.202-1.4-1.856-3.128-1.856-4.928c0-1.782,0.666-3.428,1.88-4.639c1.208-1.209,2.854-1.874,4.637-1.874
	c1.807,0,3.545,0.658,4.955,1.866l6.678,9.993l-6.586,6.017L394.056,50.352z M352.498,91.998c-1.227-1.407-1.896-3.152-1.896-4.973
	c0-1.782,0.665-3.429,1.88-4.641c1.208-1.209,2.854-1.874,4.637-1.874c1.839,0,3.605,0.682,5.029,1.931l5.343,7.486l-7.749,7.079
	L352.498,91.998z M339.613,136.009c0.351-0.488,0.834-1.059,1.483-1.65l41.314-37.746c0.005-0.004,0.009-0.009,0.014-0.013
	l44.884-41.007c4.125,13.828,14.988,24.776,28.769,29.009l-78.387,86.26c-0.605,0.665-1.187,1.157-1.685,1.513L339.613,136.009
	 M429.577,149.846c2.532,2.89,2.592,7.124,0.053,9.662c-1.207,1.208-2.852,1.873-4.635,1.873c-1.824,0-3.577-0.671-4.994-1.899
	l-5.058-7.309l7.034-7.74L429.577,149.846z M471.24,108.317c2.47,2.889,2.508,7.073-0.009,9.589
	c-1.209,1.209-2.859,1.875-4.647,1.875c-1.798,0-3.528-0.656-4.936-1.859l-6.574-9.91l5.93-6.526L471.24,108.317z"/>
<g>
</g>
<g>
</g>
<g>
</g>
<g>
</g>
<g>
</g>
<g>
</g>
<g>
</g>
<g>
</g>
<g>
</g>
<g>
</g>
<g>
</g>
<g>
</g>
<g>
</g>
<g>
</g>
<g>
</g>
</svg>
