<?xml version="1.0" encoding="iso-8859-1"?>
<!-- Generator: Adobe Illustrator 19.0.0, SVG Export Plug-In . SVG Version: 6.00 Build 0)  -->
<svg version="1.1" id="Capa_1" xmlns="http://www.w3.org/2000/svg" xmlns:xlink="http://www.w3.org/1999/xlink" x="0px" y="0px"
	 viewBox="0 0 512 512" style="enable-background:new 0 0 512 512;" xml:space="preserve">
<rect x="7.5" y="41" style="fill:#464646;" width="497" height="430"/>
<rect x="474.5" y="41" style="fill:#353535;" width="30" height="430"/>
<rect x="37.5" y="71" style="fill:#595959;" width="437" height="370"/>
<g>
	<circle style="fill:#FFDEA9;" cx="109.26" cy="112.68" r="14.999"/>
	<circle style="fill:#FFDEA9;" cx="205.68" cy="112.68" r="14.999"/>
	<circle style="fill:#FFDEA9;" cx="302.53" cy="112.68" r="14.999"/>
	<circle style="fill:#FFDEA9;" cx="399.37" cy="112.68" r="14.999"/>
</g>
<rect x="79.76" y="158.35" style="fill:#FF803C;" width="60" height="60"/>
<g>
	<rect x="175.96" y="158.35" style="fill:#FFDEA9;" width="60" height="60"/>
	<rect x="272.66" y="158.35" style="fill:#FFDEA9;" width="60" height="60"/>
	<rect x="369.37" y="158.35" style="fill:#FFDEA9;" width="60" height="60"/>
	<rect x="79.76" y="254.05" style="fill:#FFDEA9;" width="60" height="60"/>
	<rect x="175.96" y="254.05" style="fill:#FFDEA9;" width="60" height="60"/>
</g>
<rect x="272.66" y="254.05" style="fill:#FFCE55;" width="60" height="60"/>
<rect x="369.37" y="254.05" style="fill:#FF803C;" width="60" height="60"/>
<rect x="79.76" y="349.74" style="fill:#FFCE55;" width="60" height="60"/>
<g>
	<rect x="175.96" y="349.74" style="fill:#FFDEA9;" width="60" height="60"/>
	<rect x="272.66" y="349.74" style="fill:#FFDEA9;" width="60" height="60"/>
	<rect x="369.37" y="349.74" style="fill:#FFDEA9;" width="60" height="60"/>
</g>
<path d="M504.5,33.5h-24.25c-4.143,0-7.5,3.357-7.5,7.5s3.357,7.5,7.5,7.5H497v415H15V127.684c0-4.143-3.357-7.5-7.5-7.5
	s-7.5,3.357-7.5,7.5V471c0,4.143,3.357,7.5,7.5,7.5h497c4.143,0,7.5-3.357,7.5-7.5V41C512,36.857,508.643,33.5,504.5,33.5z"/>
<path d="M7.5,103c4.143,0,7.5-3.357,7.5-7.5v-47h433.25c4.143,0,7.5-3.357,7.5-7.5s-3.357-7.5-7.5-7.5H7.5C3.357,33.5,0,36.857,0,41
	v54.5C0,99.643,3.357,103,7.5,103z"/>
<path d="M474.5,391.667c4.143,0,7.5-3.357,7.5-7.5V71c0-4.143-3.357-7.5-7.5-7.5h-437c-4.143,0-7.5,3.357-7.5,7.5v370
	c0,4.143,3.357,7.5,7.5,7.5h437c4.143,0,7.5-3.357,7.5-7.5v-24.833c0-4.143-3.357-7.5-7.5-7.5s-7.5,3.357-7.5,7.5V433.5H45v-355h422
	v305.667C467,388.31,470.357,391.667,474.5,391.667z"/>
<path d="M106.112,90.406c-5.95,0.841-11.217,3.949-14.83,8.752c-3.612,4.803-5.139,10.725-4.297,16.676
	c0.841,5.95,3.949,11.217,8.752,14.829c3.94,2.965,8.634,4.524,13.479,4.524c1.061,0,2.129-0.075,3.197-0.227
	c5.95-0.841,11.217-3.949,14.829-8.752c7.458-9.913,5.46-24.047-4.454-31.505c0,0,0,0,0-0.001
	C117.985,91.091,112.066,89.564,106.112,90.406z M115.255,117.191c-1.204,1.602-2.959,2.638-4.942,2.918
	c-1.982,0.278-3.956-0.229-5.558-1.434c-1.601-1.203-2.637-2.959-2.917-4.942c-0.281-1.983,0.228-3.957,1.433-5.558
	c1.203-1.601,2.959-2.637,4.942-2.917c0.355-0.051,0.712-0.075,1.065-0.075c1.614,0,3.18,0.52,4.492,1.508
	C117.075,109.177,117.741,113.888,115.255,117.191z"/>
<path d="M192.15,130.663c3.94,2.965,8.634,4.524,13.479,4.524c1.061,0,2.129-0.075,3.197-0.227
	c5.95-0.841,11.217-3.949,14.829-8.751c3.613-4.803,5.14-10.725,4.298-16.676c-0.841-5.95-3.949-11.217-8.752-14.83
	c-9.913-7.457-24.045-5.461-31.506,4.454c-3.612,4.803-5.139,10.725-4.297,16.676C184.239,121.784,187.348,127.051,192.15,130.663z
	 M199.683,108.176c1.473-1.957,3.725-2.988,6.003-2.988c1.568,0,3.15,0.489,4.498,1.503c1.601,1.205,2.638,2.961,2.918,4.944
	c0.28,1.982-0.229,3.956-1.434,5.557c-1.204,1.602-2.959,2.638-4.942,2.918c-1.982,0.278-3.956-0.229-5.558-1.434
	c-1.601-1.203-2.637-2.959-2.917-4.942C197.97,111.75,198.479,109.776,199.683,108.176z"/>
<path d="M289.009,130.663c3.94,2.965,8.634,4.524,13.479,4.524c1.061,0,2.129-0.075,3.197-0.227
	c5.95-0.841,11.217-3.949,14.829-8.752c7.458-9.913,5.46-24.047-4.454-31.505c-4.803-3.612-10.724-5.143-16.675-4.298
	c-5.951,0.841-11.218,3.949-14.831,8.752c-3.612,4.803-5.139,10.725-4.297,16.676C281.098,121.784,284.206,127.051,289.009,130.663z
	 M296.542,108.176c1.203-1.601,2.959-2.637,4.942-2.917c0.356-0.051,0.712-0.075,1.065-0.075c1.615,0,3.18,0.52,4.492,1.507
	c3.305,2.486,3.971,7.197,1.484,10.501c-1.204,1.602-2.959,2.638-4.942,2.918c-1.982,0.278-3.956-0.229-5.558-1.434
	c-1.601-1.203-2.637-2.959-2.917-4.942C294.828,111.75,295.337,109.776,296.542,108.176z"/>
<path d="M385.84,130.663c3.94,2.965,8.634,4.524,13.479,4.524c1.061,0,2.129-0.075,3.197-0.227
	c5.95-0.841,11.217-3.949,14.829-8.752c7.458-9.913,5.46-24.047-4.454-31.505c-4.802-3.612-10.721-5.143-16.675-4.298
	c-5.951,0.841-11.218,3.949-14.831,8.752c-3.612,4.803-5.139,10.725-4.297,16.676C377.929,121.784,381.037,127.051,385.84,130.663z
	 M393.373,108.176c1.203-1.601,2.959-2.637,4.942-2.917c0.356-0.051,0.712-0.075,1.065-0.075c1.615,0,3.18,0.52,4.492,1.507
	c3.305,2.486,3.971,7.197,1.484,10.501c-1.204,1.602-2.959,2.638-4.942,2.918c-1.982,0.278-3.957-0.229-5.558-1.434
	c-1.601-1.203-2.637-2.959-2.917-4.942C391.659,111.75,392.168,109.776,393.373,108.176z"/>
<path d="M147.263,158.349c0-4.143-3.357-7.5-7.5-7.5h-60c-4.143,0-7.5,3.357-7.5,7.5v60c0,4.143,3.357,7.5,7.5,7.5h60
	c4.143,0,7.5-3.357,7.5-7.5V158.349z M132.263,210.849h-45v-45h45V210.849z"/>
<path d="M243.464,158.349c0-4.143-3.357-7.5-7.5-7.5h-60c-4.143,0-7.5,3.357-7.5,7.5v60c0,4.143,3.357,7.5,7.5,7.5h60
	c4.143,0,7.5-3.357,7.5-7.5V158.349z M228.464,210.849h-45v-45h45V210.849z"/>
<path d="M340.164,158.349c0-4.143-3.357-7.5-7.5-7.5h-60c-4.143,0-7.5,3.357-7.5,7.5v60c0,4.143,3.357,7.5,7.5,7.5h60
	c4.143,0,7.5-3.357,7.5-7.5V158.349z M325.164,210.849h-45v-45h45V210.849z"/>
<path d="M436.865,158.349c0-4.143-3.357-7.5-7.5-7.5h-60c-4.143,0-7.5,3.357-7.5,7.5v60c0,4.143,3.357,7.5,7.5,7.5h60
	c4.143,0,7.5-3.357,7.5-7.5V158.349z M421.865,210.849h-45v-45h45V210.849z"/>
<path d="M147.263,254.046c0-4.143-3.357-7.5-7.5-7.5h-60c-4.143,0-7.5,3.357-7.5,7.5v60c0,4.143,3.357,7.5,7.5,7.5h60
	c4.143,0,7.5-3.357,7.5-7.5V254.046z M132.263,306.546h-45v-45h45V306.546z"/>
<path d="M243.464,254.046c0-4.143-3.357-7.5-7.5-7.5h-60c-4.143,0-7.5,3.357-7.5,7.5v60c0,4.143,3.357,7.5,7.5,7.5h60
	c4.143,0,7.5-3.357,7.5-7.5V254.046z M228.464,306.546h-45v-45h45V306.546z"/>
<path d="M340.164,254.046c0-4.143-3.357-7.5-7.5-7.5h-60c-4.143,0-7.5,3.357-7.5,7.5v60c0,4.143,3.357,7.5,7.5,7.5h60
	c4.143,0,7.5-3.357,7.5-7.5V254.046z M325.164,306.546h-45v-45h45V306.546z"/>
<path d="M436.865,254.046c0-4.143-3.357-7.5-7.5-7.5h-60c-4.143,0-7.5,3.357-7.5,7.5v60c0,4.143,3.357,7.5,7.5,7.5h60
	c4.143,0,7.5-3.357,7.5-7.5V254.046z M421.865,306.546h-45v-45h45V306.546z"/>
<path d="M139.763,342.243h-60c-4.143,0-7.5,3.357-7.5,7.5v60c0,4.143,3.357,7.5,7.5,7.5h60c4.143,0,7.5-3.357,7.5-7.5v-60
	C147.263,345.601,143.905,342.243,139.763,342.243z M132.263,402.243h-45v-45h45V402.243z"/>
<path d="M235.964,342.243h-60c-4.143,0-7.5,3.357-7.5,7.5v60c0,4.143,3.357,7.5,7.5,7.5h60c4.143,0,7.5-3.357,7.5-7.5v-60
	C243.464,345.601,240.106,342.243,235.964,342.243z M228.464,402.243h-45v-45h45V402.243z"/>
<path d="M332.664,342.243h-60c-4.143,0-7.5,3.357-7.5,7.5v60c0,4.143,3.357,7.5,7.5,7.5h60c4.143,0,7.5-3.357,7.5-7.5v-60
	C340.164,345.601,336.807,342.243,332.664,342.243z M325.164,402.243h-45v-45h45V402.243z"/>
<path d="M429.365,342.243h-60c-4.143,0-7.5,3.357-7.5,7.5v60c0,4.143,3.357,7.5,7.5,7.5h60c4.143,0,7.5-3.357,7.5-7.5v-60
	C436.865,345.601,433.508,342.243,429.365,342.243z M421.865,402.243h-45v-45h45V402.243z"/>
<g>
</g>
<g>
</g>
<g>
</g>
<g>
</g>
<g>
</g>
<g>
</g>
<g>
</g>
<g>
</g>
<g>
</g>
<g>
</g>
<g>
</g>
<g>
</g>
<g>
</g>
<g>
</g>
<g>
</g>
</svg>
