<?xml version="1.0" encoding="iso-8859-1"?>
<!-- Generator: Adobe Illustrator 19.0.0, SVG Export Plug-In . SVG Version: 6.00 Build 0)  -->
<svg version="1.1" id="Capa_1" xmlns="http://www.w3.org/2000/svg" xmlns:xlink="http://www.w3.org/1999/xlink" x="0px" y="0px"
	 viewBox="0 0 512 512" style="enable-background:new 0 0 512 512;" xml:space="preserve">
<path style="fill:#FFDEA9;" d="M97.069,330H43.135C23.455,330,7.5,314.046,7.5,294.365v-136.73C7.5,137.955,23.455,122,43.135,122
	h194.889c7,0,13.023,5.379,13.352,12.372c0.352,7.465-5.597,13.628-12.985,13.628H44.254c-5.939,0-10.754,4.815-10.754,10.754
	v134.492c0,5.939,4.815,10.754,10.754,10.754h52.448c7,0,13.023,5.379,13.352,12.372C110.406,323.837,104.457,330,97.069,330z"/>
<path style="fill:#FF803C;" d="M138.5,400h346c11.046,0,20-8.954,20-20V253c0-11.046-8.954-20-20-20h-346c-13.255,0-24,10.745-24,24
	v119C114.5,389.255,125.245,400,138.5,400z"/>
<path style="fill:#F76328;" d="M484.5,233h-30c11.046,0,20,8.954,20,20v127c0,11.046-8.954,20-20,20h30c11.046,0,20-8.954,20-20V253
	C504.5,241.954,495.546,233,484.5,233z"/>
<rect x="430.8" y="272" style="fill:#FFBF7B;" width="43.7" height="128"/>
<rect x="387.1" y="272" style="fill:#FFDEA9;" width="43.7" height="128"/>
<rect x="343.4" y="272" style="fill:#FFBF7B;" width="43.7" height="128"/>
<rect x="299.7" y="272" style="fill:#FFDEA9;" width="43.7" height="128"/>
<rect x="256" y="272" style="fill:#FFBF7B;" width="43.7" height="128"/>
<rect x="212.3" y="272" style="fill:#FFDEA9;" width="43.7" height="128"/>
<rect x="168.6" y="272" style="fill:#FFBF7B;" width="43.7" height="128"/>
<rect x="84.5" y="266.5" style="fill:#F76328;" width="30" height="100"/>
<g>
	<rect x="417.8" y="272" style="fill:#595959;" width="26" height="70"/>
	<rect x="374.1" y="272" style="fill:#595959;" width="26" height="70"/>
	<rect x="286.95" y="272" style="fill:#595959;" width="26" height="70"/>
	<rect x="243" y="272" style="fill:#595959;" width="26" height="70"/>
	<rect x="198.76" y="272" style="fill:#595959;" width="26" height="70"/>
</g>
<rect x="214.71" y="112" style="fill:#5C4346;" width="30" height="44"/>
<polygon style="fill:#735458;" points="311.242,143.622 244.708,149 244.708,119 311.242,124.378 "/>
<path d="M484.5,225.5h-4.667c-4.143,0-7.5,3.357-7.5,7.5s3.357,7.5,7.5,7.5h4.667c6.893,0,12.5,5.607,12.5,12.5v127
	c0,6.893-5.607,12.5-12.5,12.5H482V272c0-4.143-3.357-7.5-7.5-7.5h-30.7h-13h-13h-17.7h-13h-13h-30.7h-30.449H299.7h-12.749H269h-13
	h-13h-18.239H212.3h-13.539H168.6c-4.143,0-7.5,3.357-7.5,7.5v79.667c0,4.143,3.357,7.5,7.5,7.5s7.5-3.357,7.5-7.5V279.5h15.161V342
	c0,4.143,3.357,7.5,7.5,7.5h6.039v43h-28.7V384c0-4.143-3.357-7.5-7.5-7.5s-7.5,3.357-7.5,7.5v8.5h-22.6
	c-9.098,0-16.5-7.402-16.5-16.5v-9.5v-100V257c0-9.098,7.402-16.5,16.5-16.5H448c4.143,0,7.5-3.357,7.5-7.5s-3.357-7.5-7.5-7.5
	H138.5c-17.369,0-31.5,14.131-31.5,31.5v2H84.5c-4.143,0-7.5,3.357-7.5,7.5v30H44.25c-1.792,0-3.25-1.458-3.25-3.25v-134.5
	c0-1.792,1.458-3.25,3.25-3.25H63.5c4.143,0,7.5-3.357,7.5-7.5s-3.357-7.5-7.5-7.5H44.25c-10.063,0-18.25,8.187-18.25,18.25v134.5
	c0,10.063,8.187,18.25,18.25,18.25H77v11H43.14C27.623,322.5,15,309.877,15,294.36V157.64c0-15.517,12.623-28.14,28.14-28.14
	h164.068v11H95.75c-4.143,0-7.5,3.357-7.5,7.5s3.357,7.5,7.5,7.5h111.458v0.5c0,4.143,3.357,7.5,7.5,7.5h30
	c4.143,0,7.5-3.357,7.5-7.5v-0.082l59.639-4.821c3.895-0.314,6.896-3.567,6.896-7.476v-19.244c0-3.908-3.001-7.161-6.896-7.476
	l-59.639-4.821V112c0-4.143-3.357-7.5-7.5-7.5h-30c-4.143,0-7.5,3.357-7.5,7.5v2.5H43.14C19.353,114.5,0,133.853,0,157.64v136.72
	c0,23.787,19.353,43.14,43.14,43.14H77v29c0,4.143,3.357,7.5,7.5,7.5H107v2c0,17.369,14.131,31.5,31.5,31.5h30.1h43.7H256h43.7h43.7
	h43.7h43.7h43.7h10c15.163,0,27.5-12.337,27.5-27.5V253C512,237.837,499.663,225.5,484.5,225.5z M303.742,131.296v5.408
	l-51.534,4.165v-13.738L303.742,131.296z M237.208,119.5v29h-15v-0.461c0-0.013,0.002-0.025,0.002-0.039s-0.002-0.026-0.002-0.039
	v-25.923c0-0.013,0.002-0.025,0.002-0.039s-0.002-0.026-0.002-0.039v-2.46H237.208z M92,359v-85h15v85H92z M436.3,334.5h-11v-55h5.5
	h5.5V334.5z M392.6,334.5h-11v-55h5.5h5.5V334.5z M305.451,334.5h-11v-55h5.249h5.751V334.5z M261.5,334.5h-11v-55h5.5h5.5V334.5z
	 M212.3,279.5h4.961v55h-11v-55H212.3z M219.8,349.5h4.961c4.143,0,7.5-3.357,7.5-7.5v-62.5h3.239V342c0,4.143,3.357,7.5,7.5,7.5
	h5.5v43h-28.7V349.5z M263.5,349.5h5.5c4.143,0,7.5-3.357,7.5-7.5v-62.5h2.951V342c0,4.143,3.357,7.5,7.5,7.5h5.249v43h-28.7
	L263.5,349.5L263.5,349.5z M307.2,349.5h5.751c4.143,0,7.5-3.357,7.5-7.5v-62.5H335.9v113h-28.7L307.2,349.5L307.2,349.5z
	 M350.9,279.5h15.7V342c0,4.143,3.357,7.5,7.5,7.5h5.5v43h-28.7V279.5z M394.6,349.5h5.5c4.143,0,7.5-3.357,7.5-7.5v-62.5h2.7V342
	c0,4.143,3.357,7.5,7.5,7.5h5.5v43h-28.7V349.5z M438.3,392.5v-43h5.5c4.143,0,7.5-3.357,7.5-7.5v-62.5H467v113H438.3z"/>
<g>
</g>
<g>
</g>
<g>
</g>
<g>
</g>
<g>
</g>
<g>
</g>
<g>
</g>
<g>
</g>
<g>
</g>
<g>
</g>
<g>
</g>
<g>
</g>
<g>
</g>
<g>
</g>
<g>
</g>
</svg>
