<?xml version="1.0" encoding="iso-8859-1"?>
<!-- Generator: Adobe Illustrator 19.0.0, SVG Export Plug-In . SVG Version: 6.00 Build 0)  -->
<svg version="1.1" id="Capa_1" xmlns="http://www.w3.org/2000/svg" xmlns:xlink="http://www.w3.org/1999/xlink" x="0px" y="0px"
	 viewBox="0 0 512 512" style="enable-background:new 0 0 512 512;" xml:space="preserve">
<rect x="7.5" y="222.39" style="fill:#464646;" width="497" height="166.61"/>
<rect x="474.5" y="222.39" style="fill:#353535;" width="30" height="166.61"/>
<rect x="37.5" y="261" style="fill:#FFDEA9;" width="43.7" height="128"/>
<rect x="81.2" y="261" style="fill:#FFBF7B;" width="43.7" height="128"/>
<rect x="124.9" y="261" style="fill:#FFDEA9;" width="43.7" height="128"/>
<rect x="168.6" y="261" style="fill:#FFBF7B;" width="43.7" height="128"/>
<rect x="212.3" y="261" style="fill:#FFDEA9;" width="43.7" height="128"/>
<rect x="256" y="261" style="fill:#FFBF7B;" width="43.7" height="128"/>
<rect x="299.7" y="261" style="fill:#FFDEA9;" width="43.7" height="128"/>
<rect x="343.4" y="261" style="fill:#FFBF7B;" width="43.7" height="128"/>
<rect x="387.1" y="261" style="fill:#FFDEA9;" width="43.7" height="128"/>
<rect x="430.8" y="261" style="fill:#FFBF7B;" width="43.7" height="128"/>
<rect x="7.5" y="123" style="fill:#595959;" width="497" height="99.77"/>
<rect x="474.5" y="123" style="fill:#464646;" width="30" height="99.77"/>
<g>
	<rect x="161" y="152.38" style="fill:#FFDEA9;" width="190" height="40"/>
	<rect x="102" y="152.38" style="fill:#FFDEA9;" width="30" height="40"/>
	<rect x="380" y="152.38" style="fill:#FFDEA9;" width="30" height="40"/>
</g>
<g>
	<rect x="68.2" y="261" style="fill:#595959;" width="26" height="70"/>
	<rect x="111.9" y="261" style="fill:#595959;" width="26" height="70"/>
	<rect x="199.05" y="261" style="fill:#595959;" width="26" height="70"/>
	<rect x="243" y="261" style="fill:#595959;" width="26" height="70"/>
	<rect x="287.24" y="261" style="fill:#595959;" width="26" height="70"/>
	<rect x="374.1" y="261" style="fill:#595959;" width="26" height="70"/>
	<rect x="417.8" y="261" style="fill:#595959;" width="26" height="70"/>
</g>
<path d="M474.5,253.5h-437c-4.142,0-7.5,3.357-7.5,7.5v120.5H15V288c0-4.143-3.358-7.5-7.5-7.5S0,283.857,0,288v101
	c0,4.143,3.358,7.5,7.5,7.5l0,0l0,0l0,0l0,0h497l0,0l0,0l0,0l0,0l0,0l0,0l0,0c4.142,0,7.5-3.357,7.5-7.5v-17
	c0-4.143-3.358-7.5-7.5-7.5s-7.5,3.357-7.5,7.5v9.5h-15V261C482,256.857,478.642,253.5,474.5,253.5L474.5,253.5L474.5,253.5
	L474.5,253.5L474.5,253.5L474.5,253.5L474.5,253.5L474.5,253.5 M436.3,323.5h-11v-55h11l0,0V323.5z M392.6,323.5h-11v-55h11l0,0
	V323.5z M305.739,323.5h-11v-55l0,0h11V323.5z M261.5,323.5h-11v-55h11l0,0V323.5z M217.548,323.5h-11v-55h11l0,0V323.5z
	 M130.4,323.5h-11v-55h11l0,0V323.5z M86.7,323.5h-11v-55h11l0,0V323.5z M45,268.5h15.7V331c0,4.143,3.358,7.5,7.5,7.5h5.5v43H45
	V268.5z M88.7,338.5h5.5c4.142,0,7.5-3.357,7.5-7.5v-62.5h2.7V331c0,4.143,3.358,7.5,7.5,7.5h5.5v43H88.7V338.5z M132.4,338.5h5.5
	c4.142,0,7.5-3.357,7.5-7.5v-62.5h15.7v113h-28.7V338.5z M176.1,268.5h15.448V331c0,4.143,3.358,7.5,7.5,7.5h5.751v43h-28.7
	L176.1,268.5L176.1,268.5z M219.8,338.5h5.249c4.142,0,7.5-3.357,7.5-7.5v-62.5h2.952V331c0,4.143,3.358,7.5,7.5,7.5h5.5v43h-28.7
	L219.8,338.5L219.8,338.5z M263.5,338.5h5.5c4.142,0,7.5-3.357,7.5-7.5v-62.5h3.239V331c0,4.143,3.358,7.5,7.5,7.5h4.961v43h-28.7
	V338.5z M307.2,338.5h6.039c4.142,0,7.5-3.357,7.5-7.5v-62.5H335.9v113h-28.7L307.2,338.5L307.2,338.5z M350.9,268.5h15.7V331
	c0,4.143,3.358,7.5,7.5,7.5h5.5v43h-28.7V268.5z M394.6,338.5h5.5c4.142,0,7.5-3.357,7.5-7.5v-62.5h2.7V331
	c0,4.143,3.358,7.5,7.5,7.5h5.5v43h-28.7V338.5z M438.3,381.5v-43h5.5c4.142,0,7.5-3.357,7.5-7.5v-62.5H467v113H438.3z"/>
<path d="M504.5,115.5H480c-4.142,0-7.5,3.357-7.5,7.5s3.358,7.5,7.5,7.5h17v84.389H15V130.5h433c4.142,0,7.5-3.357,7.5-7.5
	s-3.358-7.5-7.5-7.5H7.5c-4.142,0-7.5,3.357-7.5,7.5v133l0,0l0,0c0,4.143,3.358,7.5,7.5,7.5s7.5-3.357,7.5-7.5v-25.733h482v109.4
	c0,4.143,3.358,7.5,7.5,7.5s7.5-3.357,7.5-7.5V123l0,0l0,0C512,118.857,508.642,115.5,504.5,115.5z"/>
<path d="M161,144.879c-4.142,0-7.5,3.357-7.5,7.5v40c0,4.143,3.358,7.5,7.5,7.5h190c4.142,0,7.5-3.357,7.5-7.5v-40
	c0-4.143-3.358-7.5-7.5-7.5H161z M343.5,184.879h-175v-25h175V184.879z"/>
<path d="M102,144.879c-4.142,0-7.5,3.357-7.5,7.5v40c0,4.143,3.358,7.5,7.5,7.5h30c4.142,0,7.5-3.357,7.5-7.5v-40
	c0-4.143-3.358-7.5-7.5-7.5H102z M124.5,184.879h-15v-25h15V184.879z"/>
<path d="M380,144.879c-4.142,0-7.5,3.357-7.5,7.5v40c0,4.143,3.358,7.5,7.5,7.5h30c4.142,0,7.5-3.357,7.5-7.5v-40
	c0-4.143-3.358-7.5-7.5-7.5H380z M402.5,184.879h-15v-25h15V184.879z"/>
<path d="M75.642,151.522h-18c-4.142,0-7.5,3.357-7.5,7.5s3.358,7.5,7.5,7.5h18c4.142,0,7.5-3.357,7.5-7.5
	S79.784,151.522,75.642,151.522z"/>
<path d="M75.642,177.522h-18c-4.142,0-7.5,3.357-7.5,7.5s3.358,7.5,7.5,7.5h18c4.142,0,7.5-3.357,7.5-7.5
	S79.784,177.522,75.642,177.522z"/>
<path d="M436.358,151.522c-4.142,0-7.5,3.357-7.5,7.5s3.358,7.5,7.5,7.5h18c4.142,0,7.5-3.357,7.5-7.5s-3.358-7.5-7.5-7.5H436.358z"
	/>
<path d="M454.358,177.522h-18c-4.142,0-7.5,3.357-7.5,7.5s3.358,7.5,7.5,7.5h18c4.142,0,7.5-3.357,7.5-7.5
	S458.5,177.522,454.358,177.522z"/>
<g>
</g>
<g>
</g>
<g>
</g>
<g>
</g>
<g>
</g>
<g>
</g>
<g>
</g>
<g>
</g>
<g>
</g>
<g>
</g>
<g>
</g>
<g>
</g>
<g>
</g>
<g>
</g>
<g>
</g>
</svg>
