<?xml version="1.0" encoding="iso-8859-1"?>
<!-- Generator: Adobe Illustrator 19.0.0, SVG Export Plug-In . SVG Version: 6.00 Build 0)  -->
<svg version="1.1" id="Capa_1" xmlns="http://www.w3.org/2000/svg" xmlns:xlink="http://www.w3.org/1999/xlink" x="0px" y="0px"
	 viewBox="0 0 512 512" style="enable-background:new 0 0 512 512;" xml:space="preserve">
<g>
	<rect x="23.399" y="24.5" style="fill:#75360D;" width="30" height="480"/>
	<rect x="463.91" y="24.5" style="fill:#75360D;" width="30" height="480"/>
</g>
<path style="fill:#FFA440;" d="M259.085,442.169c-103.112,0-187-83.888-187-187s83.888-187,187-187s187,83.888,187,187
	S362.197,442.169,259.085,442.169z"/>
<path style="fill:#FFCE55;" d="M259.084,412.169c-86.57,0-157-70.43-157-157s70.43-157,157-157s157,70.43,157,157
	S345.655,412.169,259.084,412.169z"/>
<path style="fill:#FFBC38;" d="M259.085,321.692c-36.681,0-66.523-29.842-66.523-66.523s29.842-66.523,66.523-66.523
	s66.523,29.842,66.523,66.523S295.766,321.692,259.085,321.692z"/>
<path style="fill:#FFA440;" d="M259.085,188.647c-5.159,0-10.175,0.61-15,1.726c29.477,6.823,51.523,33.275,51.523,64.796
	s-22.045,57.974-51.523,64.796c4.825,1.117,9.841,1.727,15,1.727c36.681,0,66.523-29.842,66.523-66.523
	C325.607,218.489,295.766,188.647,259.085,188.647z"/>
<path style="fill:#F3B573;" d="M102.619,460.36L102.619,460.36c5.077,5.077,13.308,5.077,18.385,0l114.779-114.78l-18.385-18.385
	l-114.779,114.78C97.542,447.052,97.542,455.283,102.619,460.36z"/>
<circle style="fill:#FFDEA9;" cx="238.6" cy="324.38" r="30.31"/>
<rect x="7.5" y="7.5" style="fill:#A66856;" width="497" height="40"/>
<rect x="474.5" y="7.5" style="fill:#8F5040;" width="30" height="40"/>
<path d="M504.5,0H7.5C3.358,0,0,3.357,0,7.5v40C0,51.643,3.358,55,7.5,55h8.4v8.667c0,4.143,3.358,7.5,7.5,7.5s7.5-3.357,7.5-7.5V55
	h15v442h-15V96.167c0-4.143-3.358-7.5-7.5-7.5s-7.5,3.357-7.5,7.5V504.5c0,4.143,3.358,7.5,7.5,7.5h30c4.142,0,7.5-3.357,7.5-7.5V55
	h95.251l13.205,27.642C107.147,115.126,64.58,180.266,64.58,255.17c0,56.798,24.419,109.89,67.263,146.974l-34.526,34.522
	c-7.995,7.995-7.995,21.003,0,28.998c3.874,3.873,9.021,6.006,14.497,6.006c0.003,0,0.007,0,0.011,0
	c5.474-0.002,10.618-2.138,14.479-6.006l39.734-39.734c28.442,15.542,60.481,23.74,93.043,23.74c107.248,0,194.5-87.252,194.5-194.5
	c0-73.471-40.952-137.552-101.225-170.632L367.23,55h89.18v449.5c0,4.143,3.358,7.5,7.5,7.5h30c4.142,0,7.5-3.357,7.5-7.5V480
	c0-4.143-3.358-7.5-7.5-7.5s-7.5,3.357-7.5,7.5v17h-15V55h15v392.75c0,4.143,3.358,7.5,7.5,7.5s7.5-3.357,7.5-7.5V55h3.09
	c4.142,0,7.5-3.357,7.5-7.5v-40C512,3.357,508.642,0,504.5,0z M15,15h482v25H15V15z M115.691,455.063
	c-1.034,1.036-2.41,1.607-3.875,1.607c-0.001,0-0.002,0-0.003,0c-1.469,0-2.85-0.572-3.891-1.613c-2.146-2.146-2.146-5.638,0-7.783
	l100.342-100.333c1.084,1.455,2.281,2.852,3.601,4.172c1.313,1.313,2.707,2.515,4.168,3.606l-34.5,34.5
	c-0.015,0.015-0.031,0.031-0.046,0.046L115.691,455.063z M274.369,312.163c-1.803-5.308-4.811-10.293-9.036-14.517
	c-7.141-7.142-16.635-11.074-26.733-11.074c-8.574,0-16.706,2.844-23.338,8.07c-9.724-10.789-15.202-24.832-15.202-39.471
	c0-32.544,26.476-59.02,59.02-59.02c32.549,0,59.03,26.476,59.03,59.02C318.11,281.959,299.726,305.342,274.369,312.163z
	 M222.472,340.506c-8.893-8.893-8.893-23.361,0-32.254c4.308-4.309,10.035-6.681,16.127-6.681s11.819,2.372,16.127,6.681
	c8.893,8.893,8.893,23.361,0,32.255c-4.308,4.308-10.035,6.68-16.127,6.68S226.78,344.814,222.472,340.506z M438.58,255.17
	c0,98.977-80.523,179.5-179.5,179.5c-28.567,0-56.688-6.849-81.939-19.843l11.18-11.18c21.963,10.493,46.304,16.024,70.759,16.024
	c90.706,0,164.5-73.794,164.5-164.5c0-26.534-6.498-52.921-18.791-76.306c-1.928-3.666-6.461-5.073-10.128-3.148
	c-3.667,1.928-5.076,6.462-3.149,10.129c11.166,21.24,17.068,45.213,17.068,69.325c0,82.435-67.065,149.5-149.5,149.5
	c-20.436,0-40.778-4.257-59.432-12.351l30.979-30.979c2.592,0.554,5.259,0.847,7.972,0.847c10.099,0,19.593-3.933,26.733-11.073
	c6.663-6.663,10.304-15.216,10.943-23.949c32.823-7.852,56.833-37.707,56.833-71.994c0-40.814-33.209-74.02-74.03-74.02
	c-40.815,0-74.02,33.205-74.02,74.02c0,19.04,7.386,37.266,20.428,50.975c-4.431,8.056-5.707,17.392-3.828,26.188l-37.9,37.896
	c-15.727-13.066-28.813-29.381-38.045-47.542c-10.706-21.058-16.134-43.773-16.134-67.518c0-82.435,67.065-149.5,149.5-149.5
	c44.9,0,87.047,19.99,115.633,54.846c2.627,3.204,7.354,3.672,10.555,1.043c3.203-2.626,3.67-7.353,1.043-10.555
	c-31.446-38.343-77.82-60.334-127.231-60.334c-90.706,0-164.5,73.794-164.5,164.5c0,26.129,5.977,51.132,17.763,74.315
	c9.945,19.562,23.947,37.179,40.764,51.395l-10.631,10.63C102.426,357.25,79.58,307.94,79.58,255.17
	c0-98.977,80.523-179.5,179.5-179.5S438.58,156.193,438.58,255.17z M338.939,77.829c-24.377-11.02-51.414-17.159-79.859-17.159
	c-27.019,0-52.766,5.543-76.172,15.544L172.774,55h177.661L338.939,77.829z"/>
<g>
</g>
<g>
</g>
<g>
</g>
<g>
</g>
<g>
</g>
<g>
</g>
<g>
</g>
<g>
</g>
<g>
</g>
<g>
</g>
<g>
</g>
<g>
</g>
<g>
</g>
<g>
</g>
<g>
</g>
</svg>
