<?xml version="1.0" encoding="iso-8859-1"?>
<!-- Generator: Adobe Illustrator 19.0.0, SVG Export Plug-In . SVG Version: 6.00 Build 0)  -->
<svg version="1.1" id="Capa_1" xmlns="http://www.w3.org/2000/svg" xmlns:xlink="http://www.w3.org/1999/xlink" x="0px" y="0px"
	 viewBox="0 0 511.999 511.999" style="enable-background:new 0 0 511.999 511.999;" xml:space="preserve">
<rect x="210.34" y="206" style="fill:#A66856;" width="91.31" height="81.5"/>
<g>
	<polygon style="fill:#F3B573;" points="217.035,346 41.965,346 33.5,172 225.5,172 	"/>
	<polygon style="fill:#F3B573;" points="470.035,346 294.965,346 286.5,172 478.5,172 	"/>
</g>
<g>
	<polygon style="fill:#F5A257;" points="448.75,172 440.285,346 470.035,346 478.5,172 	"/>
	<polygon style="fill:#F5A257;" points="195.857,172 187.393,346 217.143,346 225.607,172 	"/>
</g>
<g>
	<rect x="22.5" y="136" style="fill:#FFDEA9;" width="214" height="75.67"/>
	<rect x="275.5" y="136" style="fill:#FFDEA9;" width="214" height="75.67"/>
</g>
<g>
	<rect x="459.5" y="136" style="fill:#FFBF7B;" width="30" height="75.67"/>
	<rect x="206.5" y="136" style="fill:#FFBF7B;" width="30" height="75.67"/>
</g>
<g>
	<path style="fill:#735458;" d="M245.5,186h-232c-3.314,0-6-2.686-6-6v-14c0-3.314,2.686-6,6-6h232c3.314,0,6,2.686,6,6v14
		C251.5,183.314,248.814,186,245.5,186z"/>
	<path style="fill:#735458;" d="M498.5,186h-232c-3.314,0-6-2.686-6-6v-14c0-3.314,2.686-6,6-6h232c3.314,0,6,2.686,6,6v14
		C504.5,183.314,501.814,186,498.5,186z"/>
</g>
<g>
	<path style="fill:#5C4346;" d="M498.5,160h-30c3.314,0,6,2.686,6,6v14c0,3.314-2.686,6-6,6h30c3.314,0,6-2.686,6-6v-14
		C504.5,162.686,501.814,160,498.5,160z"/>
	<path style="fill:#5C4346;" d="M245.5,160h-30c3.314,0,6,2.686,6,6v14c0,3.314-2.686,6-6,6h30c3.314,0,6-2.686,6-6v-14
		C251.5,162.686,248.814,160,245.5,160z"/>
</g>
<g>
	<path style="fill:#E8E6E1;" d="M167.5,363V186h26v177c0,7.18-5.82,13-13,13l0,0C173.32,376,167.5,370.18,167.5,363z"/>
	<path style="fill:#E8E6E1;" d="M65.5,363V186h26v177c0,7.18-5.82,13-13,13l0,0C71.32,376,65.5,370.18,65.5,363z"/>
	<path style="fill:#E8E6E1;" d="M420.5,363V186h26v177c0,7.18-5.82,13-13,13l0,0C426.32,376,420.5,370.18,420.5,363z"/>
	<path style="fill:#E8E6E1;" d="M318.5,363V186h26v177c0,7.18-5.82,13-13,13l0,0C324.32,376,318.5,370.18,318.5,363z"/>
</g>
<path d="M498.5,152.5H497V136c0-4.142-3.358-7.5-7.5-7.5h-214c-4.142,0-7.5,3.358-7.5,7.5v16.5h-1.5
	c-4.239,0-8.023,1.968-10.5,5.033c-2.477-3.066-6.261-5.033-10.5-5.033H244V136c0-4.142-3.358-7.5-7.5-7.5H96.125
	c-4.142,0-7.5,3.358-7.5,7.5s3.358,7.5,7.5,7.5H229v9H30v-9h34.25c4.142,0,7.5-3.358,7.5-7.5s-3.358-7.5-7.5-7.5H22.5
	c-4.142,0-7.5,3.358-7.5,7.5v16.5h-1.5C6.056,152.5,0,158.556,0,166v14c0,7.444,6.056,13.5,13.5,13.5H15v18.17
	c0,4.142,3.358,7.5,7.5,7.5h5.786l6.183,127.194c0.194,3.996,3.491,7.136,7.491,7.136H58v9.5c0,11.304,9.196,20.5,20.5,20.5
	S99,374.303,99,363v-9.5h61v9.5c0,11.304,9.196,20.5,20.5,20.5S201,374.303,201,363v-9.5h16.04c4,0,7.297-3.14,7.491-7.136
	L227.028,295h57.944l2.497,51.364c0.194,3.996,3.491,7.136,7.491,7.136H311v9.5c0,11.304,9.196,20.5,20.5,20.5S352,374.303,352,363
	v-9.5h8.125c4.142,0,7.5-3.358,7.5-7.5s-3.358-7.5-7.5-7.5H352V219.17h61V338.5h-21c-4.142,0-7.5,3.358-7.5,7.5s3.358,7.5,7.5,7.5
	h21v9.5c0,11.304,9.196,20.5,20.5,20.5S454,374.303,454,363v-9.5h16.04c4,0,7.297-3.14,7.491-7.136l4.375-90
	c0.201-4.137-2.99-7.654-7.127-7.855c-4.144-0.201-7.654,2.99-7.855,7.127l-4.028,82.864H454V219.17h14.696l-0.217,4.464
	c-0.201,4.138,2.99,7.654,7.127,7.855c0.124,0.006,0.248,0.009,0.37,0.009c3.975,0,7.29-3.123,7.485-7.136l0.252-5.193h5.786
	c4.142,0,7.5-3.358,7.5-7.5V193.5h1.5c7.444,0,13.5-6.056,13.5-13.5v-14C512,158.556,505.944,152.5,498.5,152.5z M283,143.5h199v9
	H283V143.5z M311,193.5v10.67h-28V193.5H311z M256,188.467c2.477,3.066,6.261,5.033,10.5,5.033h1.5v5h-24v-5h1.5
	C249.739,193.5,253.523,191.532,256,188.467z M201,193.5h28v10.67h-28V193.5z M15,167.5h229v11l0,0l0,0H15l0,0l0,0V167.5z
	 M160,204.17H99V193.5h61V204.17z M58,193.5v10.67H30V193.5H58z M49.104,338.5l-5.801-119.33H58V338.5H49.104z M84,363
	c0,3.033-2.467,5.5-5.5,5.5S73,366.033,73,363V193.5h11V363z M99,338.5V219.17h61V338.5H99z M186,363c0,3.033-2.467,5.5-5.5,5.5
	s-5.5-2.467-5.5-5.5V193.5h11V363z M201,338.5V219.17h14.696l-5.801,119.33H201z M227.757,280l2.957-60.83h5.786
	c3.51,0,6.448-2.414,7.266-5.67h24.469c0.818,3.256,3.756,5.67,7.266,5.67h5.786l2.957,60.83H227.757z M302.104,338.5l-5.801-119.33
	H311V338.5H302.104z M337,363c0,3.033-2.467,5.5-5.5,5.5s-5.5-2.467-5.5-5.5V193.5h11V363z M352,204.17V193.5h61v10.67H352z
	 M439,363c0,3.033-2.467,5.5-5.5,5.5s-5.5-2.467-5.5-5.5V193.5h11V363z M482,204.17h-28V193.5h28V204.17z M497,178.5L497,178.5H268
	l0,0l0,0l0,0v-11h229V178.5z"/>
<g>
</g>
<g>
</g>
<g>
</g>
<g>
</g>
<g>
</g>
<g>
</g>
<g>
</g>
<g>
</g>
<g>
</g>
<g>
</g>
<g>
</g>
<g>
</g>
<g>
</g>
<g>
</g>
<g>
</g>
</svg>
